<?xml version="1.0" encoding="utf-8"?>
<!-- Generator: Adobe Illustrator 19.2.1, SVG Export Plug-In . SVG Version: 6.00 Build 0)  -->
<svg version="1.1" id="Слой_1" xmlns="http://www.w3.org/2000/svg" xmlns:xlink="http://www.w3.org/1999/xlink" x="0px" y="0px"
	 width="500px" height="167.8px" viewBox="0 0 500 167.8" style="enable-background:new 0 0 500 167.8;" xml:space="preserve">
<style type="text/css">
	.st0{fill:#27BE6E;}
	.st1{fill:#FFFFFF;}
</style>
<g>
	<path class="st0" d="M64,64.9v15.7c0,0,9.4-2.6,9.4-7.9C73.5,67.5,67.9,64.9,64,64.9z"/>
	<path class="st0" d="M64,89.5v16.3c0,0,11.5,0.9,11.5-5.9S67.5,89.5,64,89.5z"/>
	<path class="st0" d="M204.1,88.5l18.6-30.3l15.6,32.4l36.6-56.4l-48.7,14.2l-15.6-38.2l-27.5,23.1L157.7,0l-24.5,34.7L101.8,8.2
		l-7.7,31.5l-48-27l-0.9,42.9L0,58.5l27.5,29.8L0,104.8l45.2,11.6v31.7l44.5-15.8l1.4,31.5l42.6-30.3l38.7,34.2l13.3-40.1l48.2,34.5
		l-8.4-42.2l5.8-1.4l-11.6-29.8l-17.5,24.7l-15.8-24l-10.7,27.3l-13.3-7.5l21.2-52L204.1,88.5z M67.9,113.1H47.4V58.2
		c0,0,15,0,25.2,0s18,7,18,15.2S78.3,85.7,78.3,85.7s13.5,1.4,13.5,11.9C91.8,111,67.9,113.1,67.9,113.1z M143.7,117.3l-8.2-12.2
		l-22.9,0.7l-5.8,11.5l-14-9.3l31.5-51h0.8l32.2,51.7L143.7,117.3z"/>
	<polygon class="st0" points="116.8,95.9 132.6,95.6 124.2,80.8 	"/>
	<path class="st1" d="M290.5,87.2c0,0,12.2-4,12.2-12.2s-7.9-15.2-18-15.2s-25.2,0-25.2,0v54.9H280c0,0,23.9-2.1,23.9-15.6
		C303.9,88.6,290.5,87.2,290.5,87.2z M275.8,66.7c3.8,0,9.4,2.6,9.4,7.9c0,5.2-9.4,7.9-9.4,7.9V66.7z M275.8,107.6V91.3
		c3.5,0,11.5,3.5,11.5,10.3C287.3,108.5,275.8,107.6,275.8,107.6z"/>
	<path class="st1" d="M342.8,55c-16.7,0-35.1,11.7-35.1,33.1s18.4,29.8,35.2,29.8c15.7,0,33.1-11.3,33.1-33.1S358.3,55,342.8,55z
		 M341.9,103.1c-3.6,0-13.5-2.3-13.5-17.5s12.5-17.8,14.7-17.5c4.7,0.6,12.8,4.3,12.8,18.4S345.4,103.1,341.9,103.1z"/>
	<path class="st1" d="M412.9,55c-16.7,0-35.1,11.7-35.1,33.1s18.4,29.8,35.2,29.8c15.7,0,33.1-11.3,33.1-33.1S428.4,55,412.9,55z
		 M411.9,103.1c-3.6,0-13.5-2.3-13.5-17.5S411,67.8,413.2,68c4.7,0.6,12.8,4.3,12.8,18.4S415.5,103.1,411.9,103.1z"/>
	<polygon class="st1" points="447.2,28.9 447.2,115.7 466.2,115.7 466.2,91.4 487.2,115.7 500,104.1 484.7,86.5 500,69.3 
		486.7,56.2 466.3,79.4 466.3,28.9 	"/>
</g>
</svg>
