<svg id="SvgjsSvg1021" xmlns="http://www.w3.org/2000/svg" version="1.1" xmlns:xlink="http://www.w3.org/1999/xlink" xmlns:svgjs="http://svgjs.com/svgjs" width="18" height="18" viewBox="0 0 18 18"><title>Эллипс 4</title><desc>Created with Avocode.</desc><defs id="SvgjsDefs1022"><clipPath id="SvgjsClipPath1025"><path id="SvgjsPath1024" d="M671 271C675.97 271 680 275.029 680 280C680 284.971 675.97 289 671 289C666.029 289 662 284.971 662 280C662 275.029 666.029 271 671 271Z " fill="#ffffff"></path></clipPath></defs><path id="SvgjsPath1023" d="M671 271C675.97 271 680 275.029 680 280C680 284.971 675.97 289 671 289C666.029 289 662 284.971 662 280C662 275.029 666.029 271 671 271Z " fill-opacity="0" fill="#ffffff" stroke-dasharray="0" stroke-linejoin="miter" stroke-linecap="butt" stroke-opacity="1" stroke="#d6d6d6" stroke-miterlimit="50" stroke-width="2" clip-path="url(&quot;#SvgjsClipPath1025&quot;)" transform="matrix(1,0,0,1,-662,-271)"></path><path id="SvgjsPath1026" d="M675.457 279L670.884 279L666.543 279C666.371 279 666 279.333 666 280C666 280.667 666.371 281 666.543 281L670.884 281L675.457 281C675.629 281 676 280.667 676 280C676 279.333 675.629 279 675.457 279Z " fill="#b8b8b8" fill-opacity="1" transform="matrix(1,0,0,1,-662,-271)"></path></svg>