<svg id="SvgjsSvg1015" xmlns="http://www.w3.org/2000/svg" version="1.1" xmlns:xlink="http://www.w3.org/1999/xlink" xmlns:svgjs="http://svgjs.com/svgjs" width="18" height="18" viewBox="0 0 18 18"><title>Эллипс 4 копия</title><desc>Created with Avocode.</desc><defs id="SvgjsDefs1016"><clipPath id="SvgjsClipPath1019"><path id="SvgjsPath1018" d="M721 271C725.97 271 730 275.029 730 280C730 284.971 725.97 289 721 289C716.029 289 712 284.971 712 280C712 275.029 716.029 271 721 271Z " fill="#ffffff"></path></clipPath></defs><path id="SvgjsPath1017" d="M721 271C725.97 271 730 275.029 730 280C730 284.971 725.97 289 721 289C716.029 289 712 284.971 712 280C712 275.029 716.029 271 721 271Z " fill-opacity="0" fill="#ffffff" stroke-dasharray="0" stroke-linejoin="miter" stroke-linecap="butt" stroke-opacity="1" stroke="#d6d6d6" stroke-miterlimit="50" stroke-width="2" clip-path="url(&quot;#SvgjsClipPath1019&quot;)" transform="matrix(1,0,0,1,-712,-271)"></path><path id="SvgjsPath1020" d="M725.457 279.302L721.698 279.302L721.698 275.543C721.698 275.371 721.465 275 721 275C720.535 275 720.302 275.371 720.302 275.543L720.302 279.302L716.543 279.302C716.371 279.302 716 279.535 716 280C716 280.465 716.371 280.698 716.543 280.698L720.302 280.698L720.302 284.457C720.302 284.629 720.535 285 721 285C721.465 285 721.698 284.629 721.698 284.457L721.698 280.698L725.457 280.698C725.629 280.698 726 280.465 726 280C726 279.535 725.629 279.302 725.457 279.302Z " fill="#949494" fill-opacity="1" transform="matrix(1,0,0,1,-712,-271)"></path></svg>