<?xml version="1.0" encoding="utf-8"?>
<!-- Generator: Adobe Illustrator 16.0.2, SVG Export Plug-In . SVG Version: 6.00 Build 0)  -->
<!DOCTYPE svg PUBLIC "-//W3C//DTD SVG 1.1//EN" "http://www.w3.org/Graphics/SVG/1.1/DTD/svg11.dtd">
<svg version="1.1" id="SvgjsSvg1022" xmlns:svgjs="http://svgjs.com/svgjs"
	 xmlns="http://www.w3.org/2000/svg" xmlns:xlink="http://www.w3.org/1999/xlink" x="0px" y="0px" width="50px" height="50px"
	 viewBox="0 0 50 50" enable-background="new 0 0 50 50" xml:space="preserve">
<title>Shape 1</title>
<desc>Created with Avocode.</desc>
<path id="SvgjsPath1024" fill="#27BE6E" d="M47.5,6.67h-5c-0.46,0-0.833,0.37-0.833,0.83S42.04,8.33,42.5,8.33h5
	c0.459,0,0.833,0.38,0.833,0.84V47.5c0,0.46-0.374,0.83-0.833,0.83H40v-35h5c0.46,0,0.833-0.37,0.833-0.83S45.46,11.67,45,11.67h-5
	v-7.5c0-1.41-1.098-2.5-2.5-2.5h-5c-1.378,0-2.5,1.12-2.5,2.5v44.16h-8.333V5H27.5c0.46,0,0.833-0.37,0.833-0.83
	S27.96,3.33,27.5,3.33h-5.833V2.5c0-1.4-1.099-2.5-2.5-2.5h-8.334c-1.378,0-2.5,1.12-2.5,2.5V10H4.167
	c-0.46,0-0.834,0.37-0.834,0.83s0.374,0.84,0.834,0.84h4.166v36.66H2.5c-0.459,0-0.833-0.37-0.833-0.83v-40
	c0-0.46,0.374-0.83,0.833-0.83h3.333c0.46,0,0.833-0.38,0.833-0.84S6.293,5,5.833,5H2.5C1.122,5,0,6.12,0,7.5v40
	C0,48.88,1.122,50,2.5,50h45c1.378,0,2.5-1.12,2.5-2.5V9.17C50,7.79,48.878,6.67,47.5,6.67z M10,48.33V6.67h7.5
	c0.46,0,0.833-0.38,0.833-0.84S17.96,5,17.5,5H10V2.5c0-0.47,0.366-0.83,0.833-0.83h8.334C19.642,1.67,20,2.02,20,2.5v45.83H10z
	 M38.333,48.33h-6.666v-40h4.166c0.46,0,0.833-0.37,0.833-0.83s-0.373-0.83-0.833-0.83h-4.166v-2.5c0-0.47,0.365-0.84,0.833-0.84h5
	c0.475,0,0.833,0.36,0.833,0.84V48.33z M17.5,13.33h-5c-0.46,0-0.833,0.38-0.833,0.84v11.66c0,0.46,0.373,0.84,0.833,0.84h5
	c0.46,0,0.833-0.38,0.833-0.84V14.17C18.333,13.71,17.96,13.33,17.5,13.33z M28.333,14.17c0-0.46-0.373-0.84-0.833-0.84h-3.333
	c-0.46,0-0.834,0.38-0.834,0.84v11.66c0,0.46,0.374,0.84,0.834,0.84H27.5c0.46,0,0.833-0.38,0.833-0.84V14.17z M16.667,25h-3.334V15
	h3.334V25z M46.667,20.83c0-0.46-0.374-0.83-0.834-0.83S45,20.37,45,20.83v8.34c0,0.46,0.373,0.83,0.833,0.83s0.834-0.37,0.834-0.83
	V20.83z M26.667,25H25V15h1.667V25z M42.5,30c0.46,0,0.833-0.37,0.833-0.83v-8.34c0-0.46-0.373-0.83-0.833-0.83
	s-0.833,0.37-0.833,0.83v8.34C41.667,29.63,42.04,30,42.5,30z M17.5,40h-5c-0.46,0-0.833,0.37-0.833,0.83s0.373,0.84,0.833,0.84h5
	c0.46,0,0.833-0.38,0.833-0.84S17.96,40,17.5,40z M17.5,43.33h-5c-0.46,0-0.833,0.38-0.833,0.84S12.04,45,12.5,45h5
	c0.46,0,0.833-0.37,0.833-0.83S17.96,43.33,17.5,43.33z M27.5,40h-3.333c-0.46,0-0.834,0.37-0.834,0.83s0.374,0.84,0.834,0.84H27.5
	c0.46,0,0.833-0.38,0.833-0.84S27.96,40,27.5,40z M27.5,43.33h-3.333c-0.46,0-0.834,0.38-0.834,0.84S23.707,45,24.167,45H27.5
	c0.46,0,0.833-0.37,0.833-0.83S27.96,43.33,27.5,43.33z M45.833,40H42.5c-0.46,0-0.833,0.37-0.833,0.83s0.373,0.84,0.833,0.84h3.333
	c0.46,0,0.834-0.38,0.834-0.84S46.293,40,45.833,40z M45.833,43.33H42.5c-0.46,0-0.833,0.38-0.833,0.84S42.04,45,42.5,45h3.333
	c0.46,0,0.834-0.37,0.834-0.83S46.293,43.33,45.833,43.33z M5.833,40H4.167c-0.46,0-0.834,0.37-0.834,0.83s0.374,0.84,0.834,0.84
	h1.666c0.46,0,0.834-0.38,0.834-0.84S6.293,40,5.833,40z M5.833,43.33H4.167c-0.46,0-0.834,0.38-0.834,0.84S3.707,45,4.167,45h1.666
	c0.46,0,0.834-0.37,0.834-0.83S6.293,43.33,5.833,43.33z M5.833,20H4.167c-0.46,0-0.834,0.37-0.834,0.83s0.374,0.84,0.834,0.84
	h1.666c0.46,0,0.834-0.38,0.834-0.84S6.293,20,5.833,20z M35.833,20h-1.666c-0.46,0-0.834,0.37-0.834,0.83s0.374,0.84,0.834,0.84
	h1.666c0.46,0,0.833-0.38,0.833-0.84C36.667,20.37,36.293,20,35.833,20z M35.833,13.33h-1.666c-0.46,0-0.834,0.38-0.834,0.84
	S33.707,15,34.167,15h1.666c0.46,0,0.833-0.37,0.833-0.83C36.667,13.71,36.293,13.33,35.833,13.33z M35.833,43.33h-1.666
	c-0.46,0-0.834,0.38-0.834,0.84S33.707,45,34.167,45h1.666c0.46,0,0.833-0.37,0.833-0.83C36.667,43.71,36.293,43.33,35.833,43.33z
	 M35.833,40h-1.666c-0.46,0-0.834,0.37-0.834,0.83s0.374,0.84,0.834,0.84h1.666c0.46,0,0.833-0.38,0.833-0.84S36.293,40,35.833,40z
	 M35.833,16.67h-1.666c-0.46,0-0.834,0.37-0.834,0.83s0.374,0.83,0.834,0.83h1.666c0.46,0,0.833-0.37,0.833-0.83
	S36.293,16.67,35.833,16.67z M5.833,23.33H4.167c-0.46,0-0.834,0.38-0.834,0.84S3.707,25,4.167,25h1.666
	c0.46,0,0.834-0.37,0.834-0.83S6.293,23.33,5.833,23.33z"/>
</svg>
