<?xml version="1.0" encoding="utf-8"?>
<!-- Generator: Adobe Illustrator 16.0.2, SVG Export Plug-In . SVG Version: 6.00 Build 0)  -->
<!DOCTYPE svg PUBLIC "-//W3C//DTD SVG 1.1//EN" "http://www.w3.org/Graphics/SVG/1.1/DTD/svg11.dtd">
<svg version="1.1" id="SvgjsSvg1028" xmlns:svgjs="http://svgjs.com/svgjs"
	 xmlns="http://www.w3.org/2000/svg" xmlns:xlink="http://www.w3.org/1999/xlink" x="0px" y="0px" width="24px" height="45px"
	 viewBox="0 0 24 45" enable-background="new 0 0 24 45" xml:space="preserve">
<title>Forma 1</title>
<desc>Created with Avocode.</desc>
<path id="SvgjsPath1030" fill="#27BE6E" d="M19.386,3.61h-0.521V0.85c0-0.47-0.384-0.85-0.857-0.85H6.038
	C5.565,0,5.181,0.38,5.181,0.85v2.76H4.613C2.113,3.61,0,5.8,0,8.4v32.04C0,42.95,2.07,45,4.613,45h14.773
	C21.93,45,24,42.95,24,40.439V8.18C24,5.66,21.93,3.61,19.386,3.61z M19.386,43.3H4.614c-1.599,0-2.9-1.28-2.9-2.86V8.4
	c0-1.65,1.355-3.09,2.9-3.09h0.567v2.65H4.266c-0.473,0-0.857,0.38-0.857,0.85c0,0.47,0.384,0.85,0.857,0.85H19.71
	c0.474,0,0.856-0.38,0.856-0.85c0-0.47-0.383-0.85-0.856-0.85h-0.846V5.31h0.522c1.598,0,2.899,1.29,2.899,2.87v32.259
	C22.286,42.02,20.984,43.3,19.386,43.3z M6.895,1.69H17.15v6.27H6.895V1.69z M18.854,23.83h-1.692c-0.945,0-1.714,0.76-1.714,1.699
	v0.841c0,0.93,0.769,1.69,1.714,1.69h1.692c0.944,0,1.713-0.761,1.713-1.69v-0.841C20.566,24.59,19.798,23.83,18.854,23.83z
	 M12.887,33.99h-1.691c-0.946,0-1.715,0.76-1.715,1.699v0.84c0,0.931,0.769,1.691,1.715,1.691h1.691
	c0.945,0,1.715-0.761,1.715-1.691v-0.84C14.602,34.75,13.832,33.99,12.887,33.99z M18.854,33.99h-1.692
	c-0.945,0-1.714,0.76-1.714,1.699v0.84c0,0.931,0.769,1.691,1.714,1.691h1.692c0.944,0,1.713-0.761,1.713-1.691v-0.84
	C20.566,34.75,19.798,33.99,18.854,33.99z M12.887,23.83h-1.691c-0.946,0-1.715,0.76-1.715,1.699v0.841
	c0,0.93,0.769,1.69,1.715,1.69h1.691c0.945,0,1.715-0.761,1.715-1.69v-0.841C14.602,24.59,13.832,23.83,12.887,23.83z M18.854,28.96
	h-1.692c-0.945,0-1.714,0.761-1.714,1.7v0.83c0,0.939,0.769,1.699,1.714,1.699h1.692c0.944,0,1.713-0.76,1.713-1.699v-0.83
	C20.566,29.721,19.798,28.96,18.854,28.96z M12.887,28.96h-1.691c-0.946,0-1.715,0.761-1.715,1.7v0.83
	c0,0.939,0.769,1.699,1.715,1.699h1.691c0.945,0,1.715-0.76,1.715-1.699v-0.83C14.602,29.721,13.832,28.96,12.887,28.96z
	 M6.884,23.83H5.193c-0.945,0-1.714,0.76-1.714,1.699v0.841c0,0.93,0.769,1.69,1.714,1.69h1.691c0.945,0,1.714-0.761,1.714-1.69
	v-0.841C8.598,24.59,7.829,23.83,6.884,23.83z M6.884,33.99H5.193c-0.945,0-1.714,0.76-1.714,1.699v0.84
	c0,0.931,0.769,1.691,1.714,1.691h1.691c0.945,0,1.714-0.761,1.714-1.691v-0.84C8.598,34.75,7.829,33.99,6.884,33.99z M6.884,28.96
	H5.193c-0.945,0-1.714,0.761-1.714,1.7v0.83c0,0.939,0.769,1.699,1.714,1.699h1.691c0.945,0,1.714-0.76,1.714-1.699v-0.83
	C8.598,29.721,7.829,28.96,6.884,28.96z M13.744,39.939h-3.405c-0.474,0-0.858,0.381-0.858,0.851s0.384,0.851,0.858,0.851h3.405
	c0.473,0,0.857-0.381,0.857-0.851S14.217,39.939,13.744,39.939z M17.161,26.37v-0.841h1.692v0.841H17.161z M17.161,36.529v-0.84
	h1.692v0.84H17.161z M5.193,26.37v-0.841h1.691v0.841H5.193z M5.193,36.529v-0.84h1.691v0.84H5.193z M11.196,26.37v-0.841h1.691
	v0.841H11.196z M11.196,36.529v-0.84h1.691v0.84H11.196z M17.161,31.49v-0.83h1.692v0.83H17.161z M5.193,31.49v-0.83h1.691v0.83
	H5.193z M11.196,31.49v-0.83h1.691v0.83H11.196z M5.123,21.32h13.715c0.945,0,1.714-0.76,1.714-1.7v-6.04
	c0-0.93-0.769-1.69-1.714-1.69H5.123c-0.945,0-1.714,0.76-1.714,1.69v6.04C3.409,20.56,4.178,21.32,5.123,21.32z M5.123,13.58h2.181
	l1.535,1.52c0.167,0.16,0.386,0.25,0.606,0.25c0.219,0,0.438-0.09,0.606-0.25c0.335-0.33,0.335-0.87,0-1.2l-0.323-0.32h9.11v6.04
	h-3.003l-3.247-3.21c-0.335-0.33-0.877-0.33-1.212,0s-0.335,0.87,0,1.2l2.035,2.01H5.123V13.58z"/>
</svg>
