<?xml version="1.0" encoding="utf-8"?>
<!-- Generator: Adobe Illustrator 16.0.2, SVG Export Plug-In . SVG Version: 6.00 Build 0)  -->
<!DOCTYPE svg PUBLIC "-//W3C//DTD SVG 1.1//EN" "http://www.w3.org/Graphics/SVG/1.1/DTD/svg11.dtd">
<svg version="1.1" id="SvgjsSvg1025" xmlns:svgjs="http://svgjs.com/svgjs"
	 xmlns="http://www.w3.org/2000/svg" xmlns:xlink="http://www.w3.org/1999/xlink" x="0px" y="0px" width="45px" height="50px"
	 viewBox="0 0 45 50" enable-background="new 0 0 45 50" xml:space="preserve">
<title>Shape 1</title>
<desc>Created with Avocode.</desc>
<path id="SvgjsPath1027" fill="#27BE6E" d="M32.546,0H5.751C2.58,0,0,2.53,0,5.65v36.81c0,3.12,2.573,5.649,5.735,5.649h20.117
	c0.528,0,0.957-0.42,0.957-0.939s-0.429-0.939-0.957-0.939H5.735c-2.106,0-3.82-1.69-3.82-3.771v-1.89h2.082
	c0.396,1.09,1.457,1.88,2.705,1.88c1.584,0,2.872-1.271,2.872-2.83s-1.288-2.83-2.872-2.83c-1.248,0-2.309,0.79-2.705,1.89H1.915
	v-8.49h2.082c0.396,1.101,1.457,1.891,2.705,1.891c1.584,0,2.872-1.27,2.872-2.83c0-1.57-1.288-2.84-2.872-2.84
	c-1.248,0-2.309,0.79-2.705,1.89H1.915v-8.49h2.082c0.396,1.1,1.457,1.89,2.705,1.89c1.584,0,2.872-1.27,2.872-2.83
	s-1.288-2.83-2.872-2.83c-1.248,0-2.309,0.79-2.705,1.88H1.915V9.43h2.082c0.396,1.1,1.457,1.89,2.705,1.89
	c1.584,0,2.872-1.27,2.872-2.83c0-1.56-1.288-2.83-2.872-2.83c-1.248,0-2.309,0.79-2.705,1.89H1.915v-1.9
	c0-2.07,1.721-3.76,3.836-3.76h26.795c2.116,0,3.837,1.69,3.837,3.78v25.301c0,0.52,0.43,0.949,0.957,0.949
	c0.529,0,0.958-0.43,0.958-0.949V5.67C38.298,2.54,35.718,0,32.546,0z M23.977,26.41H12.447c-0.529,0-0.958,0.43-0.958,0.949
	c0,0.521,0.429,0.94,0.958,0.94h11.529c0.528,0,0.957-0.42,0.957-0.94C24.934,26.84,24.505,26.41,23.977,26.41z M23.977,31.13
	H12.447c-0.529,0-0.958,0.42-0.958,0.94c0,0.529,0.429,0.949,0.958,0.949h11.529c0.528,0,0.957-0.42,0.957-0.949
	C24.934,31.55,24.505,31.13,23.977,31.13z M23.977,16.98H12.447c-0.529,0-0.958,0.42-0.958,0.94s0.429,0.95,0.958,0.95h11.529
	c0.528,0,0.957-0.43,0.957-0.95S24.505,16.98,23.977,16.98z M23.977,12.26H12.447c-0.529,0-0.958,0.43-0.958,0.95
	s0.429,0.94,0.958,0.94h11.529c0.528,0,0.957-0.42,0.957-0.94S24.505,12.26,23.977,12.26z M23.977,35.85H12.447
	c-0.529,0-0.958,0.42-0.958,0.94s0.429,0.95,0.958,0.95h11.529c0.528,0,0.957-0.43,0.957-0.95S24.505,35.85,23.977,35.85z
	 M23.977,21.7H12.447c-0.529,0-0.958,0.42-0.958,0.94s0.429,0.94,0.958,0.94h11.529c0.528,0,0.957-0.42,0.957-0.94
	S24.505,21.7,23.977,21.7z M23.977,7.55H12.447c-0.529,0-0.958,0.42-0.958,0.94c0,0.52,0.429,0.94,0.958,0.94h11.529
	c0.528,0,0.957-0.42,0.957-0.94C24.934,7.97,24.505,7.55,23.977,7.55z M23.977,40.57H12.447c-0.529,0-0.958,0.42-0.958,0.939
	s0.429,0.94,0.958,0.94h11.529c0.528,0,0.957-0.421,0.957-0.94S24.505,40.57,23.977,40.57z M33.511,31.13h-4.788
	c-0.527,0-0.957,0.42-0.957,0.94c0,0.529,0.43,0.949,0.957,0.949h4.788c0.528,0,0.957-0.42,0.957-0.949
	C34.468,31.55,34.039,31.13,33.511,31.13z M33.511,16.98h-4.788c-0.527,0-0.957,0.42-0.957,0.94s0.43,0.95,0.957,0.95h4.788
	c0.528,0,0.957-0.43,0.957-0.95S34.039,16.98,33.511,16.98z M33.511,26.41h-4.788c-0.527,0-0.957,0.43-0.957,0.949
	c0,0.521,0.43,0.94,0.957,0.94h4.788c0.528,0,0.957-0.42,0.957-0.94C34.468,26.84,34.039,26.41,33.511,26.41z M33.511,12.26h-4.788
	c-0.527,0-0.957,0.43-0.957,0.95s0.43,0.94,0.957,0.94h4.788c0.528,0,0.957-0.42,0.957-0.94S34.039,12.26,33.511,12.26z
	 M33.511,7.55h-4.788c-0.527,0-0.957,0.42-0.957,0.94c0,0.52,0.43,0.94,0.957,0.94h4.788c0.528,0,0.957-0.42,0.957-0.94
	C34.468,7.97,34.039,7.55,33.511,7.55z M33.511,21.7h-4.788c-0.527,0-0.957,0.42-0.957,0.94s0.43,0.94,0.957,0.94h4.788
	c0.528,0,0.957-0.42,0.957-0.94S34.039,21.7,33.511,21.7z M6.702,17.92c0.528,0,0.957,0.43,0.957,0.95s-0.429,0.94-0.957,0.94
	c-0.528,0-0.957-0.42-0.957-0.94S6.174,17.92,6.702,17.92z M6.702,38.68c0.528,0,0.957,0.42,0.957,0.94s-0.429,0.95-0.957,0.95
	c-0.528,0-0.957-0.43-0.957-0.95S6.174,38.68,6.702,38.68z M6.702,28.3c0.528,0,0.957,0.421,0.957,0.94
	c0,0.529-0.429,0.949-0.957,0.949c-0.528,0-0.957-0.42-0.957-0.949C5.745,28.721,6.174,28.3,6.702,28.3z M6.702,7.55
	c0.528,0,0.957,0.42,0.957,0.94c0,0.52-0.429,0.94-0.957,0.94c-0.528,0-0.957-0.42-0.957-0.94C5.745,7.97,6.174,7.55,6.702,7.55z
	 M44.043,39.62h-3.83V35.85c0-0.52-0.429-0.939-0.958-0.939h-3.829c-0.529,0-0.958,0.42-0.958,0.939v3.771h-3.829
	c-0.529,0-0.957,0.42-0.957,0.95v3.77c0,0.52,0.428,0.939,0.957,0.939h3.829v3.781c0,0.52,0.429,0.939,0.958,0.939h3.829
	c0.529,0,0.958-0.42,0.958-0.939v-3.781h3.83c0.527,0,0.957-0.42,0.957-0.939v-3.77C45,40.04,44.57,39.62,44.043,39.62z
	 M43.085,43.4h-3.83c-0.528,0-0.957,0.42-0.957,0.939v3.77h-1.915v-3.77c0-0.52-0.429-0.939-0.958-0.939h-3.829V41.51h3.829
	c0.529,0,0.958-0.42,0.958-0.939v-3.78h1.915v3.78c0,0.52,0.429,0.939,0.957,0.939h3.83V43.4z"/>
</svg>
