<?xml version="1.0" encoding="utf-8"?>
<!-- Generator: Adobe Illustrator 16.0.2, SVG Export Plug-In . SVG Version: 6.00 Build 0)  -->
<!DOCTYPE svg PUBLIC "-//W3C//DTD SVG 1.1//EN" "http://www.w3.org/Graphics/SVG/1.1/DTD/svg11.dtd">
<svg version="1.1" id="SvgjsSvg1008" xmlns:svgjs="http://svgjs.com/svgjs"
	 xmlns="http://www.w3.org/2000/svg" xmlns:xlink="http://www.w3.org/1999/xlink" x="0px" y="0px" width="17px" height="13px"
	 viewBox="0 0 17 13" enable-background="new 0 0 17 13" xml:space="preserve">
<title>Прямоугольник, скругл. углы 3</title>
<desc>Created with Avocode.</desc>
<g>
	<defs>
		<path id="SVGID_1_" d="M1,1h15c0.552,0,1,0.448,1,1s-0.448,1-1,1H1C0.448,3,0,2.552,0,2S0.448,1,1,1z"/>
	</defs>
	<clipPath id="SVGID_2_">
		<use xlink:href="#SVGID_1_"  overflow="visible"/>
	</clipPath>
	
		<path id="SvgjsPath1010" clip-path="url(#SVGID_2_)" fill="#FFFFFF" fill-opacity="0" stroke="#FFFFFF" stroke-width="2" stroke-miterlimit="50" stroke-dasharray="0" d="
		M1,1h15c0.552,0,1,0.448,1,1s-0.448,1-1,1H1C0.448,3,0,2.552,0,2S0.448,1,1,1z"/>
</g>
<g>
	<defs>
		<path id="SVGID_3_" d="M1,6h15c0.552,0,1,0.448,1,1c0,0.553-0.448,1-1,1H1C0.448,8,0,7.553,0,7C0,6.448,0.448,6,1,6z"/>
	</defs>
	<clipPath id="SVGID_4_">
		<use xlink:href="#SVGID_3_"  overflow="visible"/>
	</clipPath>
	
		<path id="SvgjsPath1013" clip-path="url(#SVGID_4_)" fill="#FFFFFF" fill-opacity="0" stroke="#FFFFFF" stroke-width="2" stroke-miterlimit="50" stroke-dasharray="0" d="
		M1,6h15c0.552,0,1,0.448,1,1c0,0.553-0.448,1-1,1H1C0.448,8,0,7.553,0,7C0,6.448,0.448,6,1,6z"/>
</g>
<g>
	<defs>
		<path id="SVGID_5_" d="M1,11h15c0.552,0,1,0.447,1,1s-0.448,1-1,1H1c-0.552,0-1-0.447-1-1S0.448,11,1,11z"/>
	</defs>
	<clipPath id="SVGID_6_">
		<use xlink:href="#SVGID_5_"  overflow="visible"/>
	</clipPath>
	
		<path id="SvgjsPath1016" clip-path="url(#SVGID_6_)" fill="#FFFFFF" fill-opacity="0" stroke="#FFFFFF" stroke-width="2" stroke-miterlimit="50" stroke-dasharray="0" d="
		M1,11h15c0.552,0,1,0.447,1,1s-0.448,1-1,1H1c-0.552,0-1-0.447-1-1S0.448,11,1,11z"/>
</g>
</svg>
