<svg id="SvgjsSvg1008" xmlns="http://www.w3.org/2000/svg" version="1.1" xmlns:xlink="http://www.w3.org/1999/xlink" xmlns:svgjs="http://svgjs.com/svgjs" width="17" height="13" viewBox="0 0 17 13"><title>Прямоугольник, скругл. углы 3</title><desc>Created with Avocode.</desc><defs id="SvgjsDefs1009"><clipPath id="SvgjsClipPath1012"><path id="SvgjsPath1011" d="M635 43.9997L650 43.9997C650.552 43.9997 651 44.4477 651 44.9999C651 45.5522 650.552 45.9999 650 45.9999L635 45.9999C634.448 45.9999 634 45.5522 634 44.9999C634 44.4477 634.448 43.9997 635 43.9997Z " fill="#ffffff"></path></clipPath><clipPath id="SvgjsClipPath1015"><path id="SvgjsPath1014" d="M635 49L650 49C650.552 49 651 49.4476 651 49.9999C651 50.5522 650.552 50.99979999999999 650 50.99979999999999L635 50.99979999999999C634.448 50.99979999999999 634 50.55219999999999 634 49.9999C634 49.447599999999994 634.448 49 635 49Z " fill="#ffffff"></path></clipPath><clipPath id="SvgjsClipPath1018"><path id="SvgjsPath1017" d="M635 53.9999L650 53.9999C650.552 53.9999 651 54.447599999999994 651 54.99979999999999C651 55.552099999999996 650.552 55.99979999999999 650 55.99979999999999L635 55.99979999999999C634.448 55.99979999999999 634 55.552099999999996 634 54.99979999999999C634 54.447599999999994 634.448 53.9999 635 53.9999Z " fill="#ffffff"></path></clipPath></defs><path id="SvgjsPath1010" d="M635 43.9997L650 43.9997C650.552 43.9997 651 44.4477 651 44.9999C651 45.5522 650.552 45.9999 650 45.9999L635 45.9999C634.448 45.9999 634 45.5522 634 44.9999C634 44.4477 634.448 43.9997 635 43.9997Z " fill-opacity="0" fill="#ffffff" stroke-dasharray="0" stroke-linejoin="miter" stroke-linecap="butt" stroke-opacity="1" stroke="#ffffff" stroke-miterlimit="50" stroke-width="2" clip-path="url(&quot;#SvgjsClipPath1012&quot;)" transform="matrix(1,0,0,1,-634,-43)"></path><path id="SvgjsPath1013" d="M635 49L650 49C650.552 49 651 49.4476 651 49.9999C651 50.5522 650.552 50.99979999999999 650 50.99979999999999L635 50.99979999999999C634.448 50.99979999999999 634 50.55219999999999 634 49.9999C634 49.447599999999994 634.448 49 635 49Z " fill-opacity="0" fill="#ffffff" stroke-dasharray="0" stroke-linejoin="miter" stroke-linecap="butt" stroke-opacity="1" stroke="#ffffff" stroke-miterlimit="50" stroke-width="2" clip-path="url(&quot;#SvgjsClipPath1015&quot;)" transform="matrix(1,0,0,1,-634,-43)"></path><path id="SvgjsPath1016" d="M635 53.9999L650 53.9999C650.552 53.9999 651 54.447599999999994 651 54.99979999999999C651 55.552099999999996 650.552 55.99979999999999 650 55.99979999999999L635 55.99979999999999C634.448 55.99979999999999 634 55.552099999999996 634 54.99979999999999C634 54.447599999999994 634.448 53.9999 635 53.9999Z " fill-opacity="0" fill="#ffffff" stroke-dasharray="0" stroke-linejoin="miter" stroke-linecap="butt" stroke-opacity="1" stroke="#ffffff" stroke-miterlimit="50" stroke-width="2" clip-path="url(&quot;#SvgjsClipPath1018&quot;)" transform="matrix(1,0,0,1,-634,-43)"></path></svg>