<?xml version="1.0" encoding="utf-8"?>
<!-- Generator: Adobe Illustrator 16.0.2, SVG Export Plug-In . SVG Version: 6.00 Build 0)  -->
<!DOCTYPE svg PUBLIC "-//W3C//DTD SVG 1.1//EN" "http://www.w3.org/Graphics/SVG/1.1/DTD/svg11.dtd">
<svg version="1.1" id="Capa_1" xmlns="http://www.w3.org/2000/svg" xmlns:xlink="http://www.w3.org/1999/xlink" x="0px" y="0px"
	 width="50px" height="50px" viewBox="0 0 50 50" enable-background="new 0 0 50 50" xml:space="preserve">
<path d="M49.855,2.826c-0.25-0.531-0.784-0.869-1.371-0.869H1.516c-0.587,0-1.121,0.338-1.371,0.869
	c-0.25,0.53-0.171,1.158,0.202,1.61l18.056,21.899v20.193c0,0.524,0.271,1.011,0.716,1.288c0.244,0.15,0.521,0.228,0.799,0.228
	c0.23,0,0.46-0.053,0.673-0.157l10.145-5.029c0.516-0.255,0.842-0.779,0.843-1.355l0.02-15.166l18.057-21.9
	C50.027,3.983,50.105,3.356,49.855,2.826z M28.913,24.827c-0.224,0.271-0.346,0.611-0.347,0.962L28.548,40.56l-7.115,3.526V25.791
	c0-0.352-0.122-0.693-0.346-0.964L4.729,4.987h40.542L28.913,24.827z"/>
</svg>
