<svg id="SvgjsSvg1009" xmlns="http://www.w3.org/2000/svg" version="1.1" xmlns:xlink="http://www.w3.org/1999/xlink" xmlns:svgjs="http://svgjs.com/svgjs" width="150" height="150" viewBox="0 0 150 150"><title>Forma 1</title><desc>Created with Avocode.</desc><defs id="SvgjsDefs1010"></defs><path id="SvgjsPath1011" d="M1031 2740.49L986.508 2696C981.1750000000001 2690.67 972.5 2690.67 967.168 2696L889 2774.17C883.668 2779.5 883.668 2788.1800000000003 889 2793.51L933.492 2838C938.8249999999999 2843.33 947.5 2843.33 952.832 2838L1031 2759.83C1036.33 2754.5 1036.33 2745.8199999999997 1031 2740.49ZM898.159 2777.9L970.904 2705.1600000000003L970.905 2775.9100000000003C970.904 2776.9800000000005 969.9789999999999 2777.9 968.915 2777.9ZM950.808 2827.13L950.808 2787.02L968.915 2787.02C971.8829999999999 2787.02 974.6719999999999 2785.86 976.769 2783.77C978.865 2781.67 980.02 2778.88 980.021 2775.91L980.021 2757.81L1020.13 2757.81ZM939.938 2831.55L895.446 2787.0600000000004C895.4340000000001 2787.05 895.431 2787.03 895.418 2787.0200000000004L941.692 2787.0200000000004L941.692 2832.6000000000004C941.0550000000001 2832.3800000000006 940.447 2832.0600000000004 939.938 2831.55ZM980.02 2748.69L980.02 2702.42C980.033 2702.4300000000003 980.049 2702.4300000000003 980.062 2702.4500000000003L1024.55 2746.94C1025.06 2747.4500000000003 1025.3799999999999 2748.05 1025.6 2748.69ZM889.443 2711.33L936.13 2711.33C938.582 2711.33 940.571 2709.34 940.571 2706.89C940.571 2704.43 938.583 2702.44 936.13 2702.44L889.443 2702.44C886.989 2702.44 885.001 2704.43 885.001 2706.89C885.001 2709.3399999999997 886.989 2711.33 889.443 2711.33ZM889.443 2728.78L918.7189999999999 2728.78C921.1719999999999 2728.78 923.16 2726.7900000000004 923.16 2724.3300000000004C923.16 2721.8800000000006 921.1719999999999 2719.8900000000003 918.7189999999999 2719.8900000000003L889.443 2719.8900000000003C886.989 2719.8900000000003 885.001 2721.88 885.001 2724.3300000000004C885.001 2726.7900000000004 886.989 2728.78 889.443 2728.78ZM889.443 2745.7L908.345 2745.7C910.797 2745.7 912.7860000000001 2743.71 912.7860000000001 2741.2599999999998C912.7860000000001 2738.7999999999997 910.798 2736.81 908.345 2736.81L889.443 2736.81C886.989 2736.81 885.001 2738.7999999999997 885.001 2741.2599999999998C885.001 2743.7099999999996 886.989 2745.7 889.443 2745.7ZM908.345 2827.37L889.443 2827.37C886.989 2827.37 885.001 2829.3599999999997 885.001 2831.81C885.001 2834.27 886.989 2836.25 889.443 2836.25L908.345 2836.25C910.797 2836.25 912.7860000000001 2834.27 912.7860000000001 2831.81C912.7860000000001 2829.36 910.798 2827.37 908.345 2827.37Z " fill="#27be6e" fill-opacity="1" transform="matrix(1,0,0,1,-885,-2692)"></path></svg>