<svg id="SvgjsSvg1055" xmlns="http://www.w3.org/2000/svg" version="1.1" xmlns:xlink="http://www.w3.org/1999/xlink" xmlns:svgjs="http://svgjs.com/svgjs" width="15" height="15" viewBox="0 0 15 15"><title>Shape 1 копия</title><desc>Created with Avocode.</desc><defs id="SvgjsDefs1056"></defs><path id="SvgjsPath1057" d="M708.45 2494.8C708.134 2495.19 707.9820000000001 2495.61 708.0020000000001 2496.05C708.0210000000001 2496.52 708.2410000000001 2496.9 708.421 2497.13C708.2120000000001 2497.63 708.1310000000001 2498.4300000000003 708.831 2499.06C709.344 2499.5099999999998 710.215 2499.71 711.422 2499.66C712.2710000000001 2499.62 712.981 2499.47 713.01 2499.46L713.013 2499.46C713.174 2499.43 713.345 2499.4 713.52 2499.36C713.5319999999999 2499.56 713.497 2500.06 713.116 2501.1800000000003C712.665 2502.5200000000004 712.6899999999999 2503.5400000000004 713.1999999999999 2504.2200000000003C713.7359999999999 2504.94 714.5909999999999 2505.0000000000005 714.843 2505.0000000000005C715.0849999999999 2505.0000000000005 715.307 2504.9000000000005 715.4649999999999 2504.7200000000003C715.824 2504.32 715.7819999999999 2503.57 715.7359999999999 2503.2300000000005C716.1619999999999 2502.1200000000003 717.3559999999999 2499.3900000000003 718.3659999999999 2498.6400000000003C718.3859999999999 2498.63 718.4019999999998 2498.61 718.4179999999999 2498.59C718.7149999999999 2498.29 718.9149999999998 2497.96 719.0499999999998 2497.67C719.2409999999999 2497.77 719.4569999999999 2497.83 719.6889999999999 2497.83L721.6579999999999 2497.83C722.3999999999999 2497.83 722.9999999999999 2497.24 722.9999999999999 2496.52L722.9999999999999 2491.43C722.9999999999999 2490.7 722.3969999999999 2490.12 721.6579999999999 2490.12L719.6889999999999 2490.12C719.4019999999998 2490.12 719.1339999999999 2490.21 718.9149999999998 2490.3599999999997L718.1569999999998 2490.2699999999995C718.0399999999998 2490.2599999999993 715.9749999999998 2489.9999999999995 713.8549999999998 2490.0399999999995C713.4709999999998 2490.0199999999995 713.1099999999998 2489.9999999999995 712.7739999999998 2489.9999999999995C712.1969999999998 2489.9999999999995 711.6929999999998 2490.0399999999995 711.2739999999998 2490.1299999999997C710.2859999999997 2490.3299999999995 709.6119999999997 2490.74 709.2699999999998 2491.3399999999997C709.0089999999998 2491.7999999999997 709.0089999999998 2492.2599999999998 709.0509999999997 2492.5399999999995C708.4079999999997 2493.1099999999997 708.2949999999997 2493.7299999999996 708.3179999999998 2494.1699999999996C708.3309999999998 2494.43 708.3889999999998 2494.6399999999994 708.4499999999997 2494.7999999999997ZM722.129 2491.43L722.129 2496.5299999999997C722.129 2496.7799999999997 721.916 2496.9799999999996 721.658 2496.9799999999996L719.689 2496.9799999999996C719.428 2496.9799999999996 719.218 2496.7799999999997 719.218 2496.5299999999997L719.218 2491.43C719.218 2491.18 719.4309999999999 2490.97 719.689 2490.97L721.658 2490.97C721.919 2490.97 722.129 2491.18 722.129 2491.43ZM709.276 2495.17C709.4119999999999 2495.03 709.438 2494.82 709.334 2494.66C709.334 2494.6499999999996 709.202 2494.44 709.1859999999999 2494.1299999999997C709.1629999999999 2493.72 709.367 2493.3599999999997 709.7929999999999 2493.0499999999997C709.9439999999998 2492.9399999999996 710.0059999999999 2492.74 709.9409999999999 2492.5699999999997C709.9409999999999 2492.5599999999995 709.8019999999999 2492.1499999999996 710.0279999999999 2491.7599999999998C710.2439999999999 2491.3799999999997 710.7249999999999 2491.1099999999997 711.454 2490.9599999999996C712.039 2490.8399999999997 712.832 2490.8099999999995 713.8069999999999 2490.8899999999994C713.8199999999999 2490.8899999999994 713.8359999999999 2490.8899999999994 713.8519999999999 2490.8899999999994C715.9269999999999 2490.8499999999995 718.0239999999999 2491.109999999999 718.0469999999999 2491.109999999999L718.05 2491.109999999999L718.376 2491.149999999999C718.357 2491.2399999999993 718.347 2491.329999999999 718.347 2491.4299999999994L718.347 2496.5299999999993C718.347 2496.6599999999994 718.369 2496.7899999999995 718.408 2496.919999999999C718.35 2497.129999999999 718.189 2497.5899999999992 717.808 2497.9899999999993C716.359 2499.109999999999 714.943 2502.879999999999 714.881 2503.0399999999995C714.856 2503.0999999999995 714.8489999999999 2503.1799999999994 714.862 2503.2499999999995C714.9169999999999 2503.5999999999995 714.8969999999999 2504.0299999999997 714.8199999999999 2504.1599999999994C714.6489999999999 2504.1599999999994 714.188 2504.109999999999 713.91 2503.7399999999993C713.581 2503.2899999999995 713.5939999999999 2502.4999999999995 713.949 2501.4499999999994C714.491 2499.859999999999 714.536 2499.0199999999995 714.107 2498.649999999999C713.894 2498.459999999999 713.61 2498.4499999999994 713.404 2498.519999999999C713.207 2498.5699999999993 713.019 2498.609999999999 712.842 2498.629999999999C712.829 2498.6399999999994 712.813 2498.6399999999994 712.8 2498.6399999999994C711.809 2498.8499999999995 710.035 2498.9799999999996 709.418 2498.4399999999996C708.896 2497.97 709.267 2497.3599999999997 709.309 2497.2899999999995C709.428 2497.1199999999994 709.3929999999999 2496.8899999999994 709.231 2496.7499999999995C709.228 2496.7399999999993 708.889 2496.4299999999994 708.873 2496.0199999999995C708.86 2495.7399999999993 708.9960000000001 2495.4499999999994 709.2760000000001 2495.1699999999996Z " fill="#dd5151" fill-opacity="1" transform="matrix(1,0,0,1,-708,-2490)"></path></svg>