<svg id="SvgjsSvg1000" xmlns="http://www.w3.org/2000/svg" version="1.1" xmlns:xlink="http://www.w3.org/1999/xlink" xmlns:svgjs="http://svgjs.com/svgjs" width="16" height="17" viewBox="0 0 16 17"><title>Shape 1</title><desc>Created with Avocode.</desc><defs id="SvgjsDefs1001"></defs><path id="SvgjsPath1007" d="M812.861 46.1839L808.972 42.295500000000004C810.015 41.0964 810.6469999999999 39.53210000000001 810.6469999999999 37.82190000000001C810.6469999999999 34.05800000000001 807.584 30.999800000000008 803.823 30.999800000000008C800.058 30.999800000000008 797 34.06150000000001 797 37.82190000000001C797 41.582600000000006 800.062 44.64430000000001 803.823 44.64430000000001C805.534 44.64430000000001 807.098 44.012800000000006 808.298 42.969800000000006L812.187 46.85790000000001C812.279 46.95000000000001 812.403 47.00000000000001 812.524 47.00000000000001C812.644 47.00000000000001 812.769 46.95360000000001 812.861 46.85790000000001C813.045 46.67340000000001 813.045 46.368500000000004 812.861 46.18390000000001ZM797.954 37.8219C797.954 34.5866 800.587 31.9575 803.8199999999999 31.9575C807.0559999999999 31.9575 809.685 34.590199999999996 809.685 37.8219C809.685 41.0539 807.0559999999999 43.6898 803.8199999999999 43.6898C800.587 43.6898 797.954 41.0575 797.954 37.8219Z " fill="#ffffff" fill-opacity="1" transform="matrix(1,0,0,1,-797,-30)"></path></svg>