<svg id="SvgjsSvg1022" xmlns="http://www.w3.org/2000/svg" version="1.1" xmlns:xlink="http://www.w3.org/1999/xlink" xmlns:svgjs="http://svgjs.com/svgjs" width="50" height="50" viewBox="0 0 50 50"><title>Shape 1</title><desc>Created with Avocode.</desc><defs id="SvgjsDefs1023"></defs><path id="SvgjsPath1024" d="M507.5 4162.67L502.5 4162.67C502.04 4162.67 501.667 4163.04 501.667 4163.5C501.667 4163.96 502.03999999999996 4164.33 502.5 4164.33L507.5 4164.33C507.959 4164.33 508.333 4164.71 508.333 4165.17L508.333 4203.5C508.333 4203.96 507.959 4204.33 507.5 4204.33L500 4204.33L500 4169.33L505 4169.33C505.46 4169.33 505.833 4168.96 505.833 4168.5C505.833 4168.04 505.46000000000004 4167.67 505 4167.67L500 4167.67L500 4160.17C500 4158.76 498.902 4157.67 497.5 4157.67L492.5 4157.67C491.122 4157.67 490 4158.79 490 4160.17L490 4204.33L481.667 4204.33L481.667 4161L487.5 4161C487.96 4161 488.333 4160.63 488.333 4160.17C488.333 4159.71 487.96000000000004 4159.33 487.5 4159.33L481.667 4159.33L481.667 4158.5C481.667 4157.1 480.568 4156 479.167 4156L470.83299999999997 4156C469.455 4156 468.33299999999997 4157.12 468.33299999999997 4158.5L468.33299999999997 4166L464.167 4166C463.707 4166 463.33299999999997 4166.37 463.33299999999997 4166.83C463.33299999999997 4167.29 463.707 4167.67 464.167 4167.67L468.33299999999997 4167.67L468.33299999999997 4204.33L462.49999999999994 4204.33C462.04099999999994 4204.33 461.6669999999999 4203.96 461.6669999999999 4203.5L461.6669999999999 4163.5C461.6669999999999 4163.04 462.04099999999994 4162.67 462.49999999999994 4162.67L465.83299999999997 4162.67C466.29299999999995 4162.67 466.666 4162.29 466.666 4161.83C466.666 4161.37 466.293 4161 465.83299999999997 4161L462.49999999999994 4161C461.12199999999996 4161 459.99999999999994 4162.12 459.99999999999994 4163.5L459.99999999999994 4203.5C459.99999999999994 4204.88 461.12199999999996 4206 462.49999999999994 4206L507.49999999999994 4206C508.87799999999993 4206 509.99999999999994 4204.88 509.99999999999994 4203.5L509.99999999999994 4165.17C509.99999999999994 4163.79 508.87799999999993 4162.67 507.49999999999994 4162.67ZM470 4204.33L470 4162.67L477.5 4162.67C477.96 4162.67 478.333 4162.29 478.333 4161.83C478.333 4161.37 477.96000000000004 4161 477.5 4161L470 4161L470 4158.5C470 4158.03 470.366 4157.67 470.833 4157.67L479.16700000000003 4157.67C479.64200000000005 4157.67 480.00000000000006 4158.02 480.00000000000006 4158.5L480.00000000000006 4204.33ZM498.333 4204.33L491.66700000000003 4204.33L491.66700000000003 4164.33L495.833 4164.33C496.293 4164.33 496.66600000000005 4163.96 496.66600000000005 4163.5C496.66600000000005 4163.04 496.29300000000006 4162.67 495.833 4162.67L491.66700000000003 4162.67L491.66700000000003 4160.17C491.66700000000003 4159.7 492.03200000000004 4159.33 492.50000000000006 4159.33L497.50000000000006 4159.33C497.9750000000001 4159.33 498.3330000000001 4159.69 498.3330000000001 4160.17ZM477.5 4169.33L472.5 4169.33C472.04 4169.33 471.667 4169.71 471.667 4170.17L471.667 4181.83C471.667 4182.29 472.03999999999996 4182.67 472.5 4182.67L477.5 4182.67C477.96 4182.67 478.333 4182.29 478.333 4181.83L478.333 4170.17C478.333 4169.71 477.96000000000004 4169.33 477.5 4169.33ZM488.333 4170.17C488.333 4169.71 487.96000000000004 4169.33 487.5 4169.33L484.167 4169.33C483.707 4169.33 483.33299999999997 4169.71 483.33299999999997 4170.17L483.33299999999997 4181.83C483.33299999999997 4182.29 483.707 4182.67 484.167 4182.67L487.5 4182.67C487.96 4182.67 488.333 4182.29 488.333 4181.83ZM476.667 4181L473.33299999999997 4181L473.33299999999997 4171L476.667 4171ZM506.667 4176.83C506.667 4176.37 506.29299999999995 4176 505.83299999999997 4176C505.373 4176 504.99999999999994 4176.37 504.99999999999994 4176.83L504.99999999999994 4185.17C504.99999999999994 4185.63 505.37299999999993 4186 505.83299999999997 4186C506.29299999999995 4186 506.667 4185.63 506.667 4185.17ZM486.667 4181L485 4181L485 4171L486.667 4171ZM502.5 4186C502.96 4186 503.333 4185.63 503.333 4185.17L503.333 4176.83C503.333 4176.37 502.96000000000004 4176 502.5 4176C502.04 4176 501.667 4176.37 501.667 4176.83L501.667 4185.17C501.667 4185.63 502.03999999999996 4186 502.5 4186ZM477.5 4196L472.5 4196C472.04 4196 471.667 4196.37 471.667 4196.83C471.667 4197.29 472.03999999999996 4197.67 472.5 4197.67L477.5 4197.67C477.96 4197.67 478.333 4197.29 478.333 4196.83C478.333 4196.37 477.96000000000004 4196 477.5 4196ZM477.5 4199.33L472.5 4199.33C472.04 4199.33 471.667 4199.71 471.667 4200.17C471.667 4200.63 472.03999999999996 4201 472.5 4201L477.5 4201C477.96 4201 478.333 4200.63 478.333 4200.17C478.333 4199.71 477.96000000000004 4199.33 477.5 4199.33ZM487.5 4196L484.167 4196C483.707 4196 483.33299999999997 4196.37 483.33299999999997 4196.83C483.33299999999997 4197.29 483.707 4197.67 484.167 4197.67L487.5 4197.67C487.96 4197.67 488.333 4197.29 488.333 4196.83C488.333 4196.37 487.96000000000004 4196 487.5 4196ZM487.5 4199.33L484.167 4199.33C483.707 4199.33 483.33299999999997 4199.71 483.33299999999997 4200.17C483.33299999999997 4200.63 483.707 4201 484.167 4201L487.5 4201C487.96 4201 488.333 4200.63 488.333 4200.17C488.333 4199.71 487.96000000000004 4199.33 487.5 4199.33ZM505.833 4196L502.5 4196C502.04 4196 501.667 4196.37 501.667 4196.83C501.667 4197.29 502.03999999999996 4197.67 502.5 4197.67L505.833 4197.67C506.293 4197.67 506.66700000000003 4197.29 506.66700000000003 4196.83C506.66700000000003 4196.37 506.293 4196 505.833 4196ZM505.833 4199.33L502.5 4199.33C502.04 4199.33 501.667 4199.71 501.667 4200.17C501.667 4200.63 502.03999999999996 4201 502.5 4201L505.833 4201C506.293 4201 506.66700000000003 4200.63 506.66700000000003 4200.17C506.66700000000003 4199.71 506.293 4199.33 505.833 4199.33ZM465.833 4196L464.16700000000003 4196C463.70700000000005 4196 463.333 4196.37 463.333 4196.83C463.333 4197.29 463.70700000000005 4197.67 464.16700000000003 4197.67L465.833 4197.67C466.293 4197.67 466.66700000000003 4197.29 466.66700000000003 4196.83C466.66700000000003 4196.37 466.293 4196 465.833 4196ZM465.833 4199.33L464.16700000000003 4199.33C463.70700000000005 4199.33 463.333 4199.71 463.333 4200.17C463.333 4200.63 463.70700000000005 4201 464.16700000000003 4201L465.833 4201C466.293 4201 466.66700000000003 4200.63 466.66700000000003 4200.17C466.66700000000003 4199.71 466.293 4199.33 465.833 4199.33ZM465.833 4176L464.16700000000003 4176C463.70700000000005 4176 463.333 4176.37 463.333 4176.83C463.333 4177.29 463.70700000000005 4177.67 464.16700000000003 4177.67L465.833 4177.67C466.293 4177.67 466.66700000000003 4177.29 466.66700000000003 4176.83C466.66700000000003 4176.37 466.293 4176 465.833 4176ZM495.833 4176L494.16700000000003 4176C493.70700000000005 4176 493.333 4176.37 493.333 4176.83C493.333 4177.29 493.70700000000005 4177.67 494.16700000000003 4177.67L495.833 4177.67C496.293 4177.67 496.66600000000005 4177.29 496.66600000000005 4176.83C496.66700000000003 4176.37 496.29300000000006 4176 495.833 4176ZM495.833 4169.33L494.16700000000003 4169.33C493.70700000000005 4169.33 493.333 4169.71 493.333 4170.17C493.333 4170.63 493.70700000000005 4171 494.16700000000003 4171L495.833 4171C496.293 4171 496.66600000000005 4170.63 496.66600000000005 4170.17C496.66700000000003 4169.71 496.29300000000006 4169.33 495.833 4169.33ZM495.833 4199.33L494.16700000000003 4199.33C493.70700000000005 4199.33 493.333 4199.71 493.333 4200.17C493.333 4200.63 493.70700000000005 4201 494.16700000000003 4201L495.833 4201C496.293 4201 496.66600000000005 4200.63 496.66600000000005 4200.17C496.66700000000003 4199.71 496.29300000000006 4199.33 495.833 4199.33ZM495.833 4196L494.16700000000003 4196C493.70700000000005 4196 493.333 4196.37 493.333 4196.83C493.333 4197.29 493.70700000000005 4197.67 494.16700000000003 4197.67L495.833 4197.67C496.293 4197.67 496.66600000000005 4197.29 496.66600000000005 4196.83C496.66600000000005 4196.37 496.29300000000006 4196 495.833 4196ZM495.833 4172.67L494.16700000000003 4172.67C493.70700000000005 4172.67 493.333 4173.04 493.333 4173.5C493.333 4173.96 493.70700000000005 4174.33 494.16700000000003 4174.33L495.833 4174.33C496.293 4174.33 496.66600000000005 4173.96 496.66600000000005 4173.5C496.66600000000005 4173.04 496.29300000000006 4172.67 495.833 4172.67ZM465.833 4179.33L464.16700000000003 4179.33C463.70700000000005 4179.33 463.333 4179.71 463.333 4180.17C463.333 4180.63 463.70700000000005 4181 464.16700000000003 4181L465.833 4181C466.293 4181 466.66700000000003 4180.63 466.66700000000003 4180.17C466.66700000000003 4179.71 466.293 4179.33 465.833 4179.33Z " fill="#27be6e" fill-opacity="1" transform="matrix(1,0,0,1,-460,-4156)"></path></svg>