<svg id="SvgjsSvg1008" xmlns="http://www.w3.org/2000/svg" version="1.1" xmlns:xlink="http://www.w3.org/1999/xlink" xmlns:svgjs="http://svgjs.com/svgjs" width="50" height="50" viewBox="0 0 50 50"><title>Shape 1</title><desc>Created with Avocode.</desc><defs id="SvgjsDefs1009"></defs><path id="SvgjsPath1010" d="M1457.5 4201L1415.83 4201C1415.37 4201 1415 4201.37 1415 4201.83C1415 4202.29 1415.37 4202.67 1415.83 4202.67L1457.5 4202.67C1458.17 4202.67 1458.32 4203.12 1458.33 4203.5L1458.33 4204.33L1411.6699999999998 4204.33L1411.6699999999998 4203.51C1411.6799999999998 4203.12 1411.83 4202.67 1412.4999999999998 4202.67C1412.9599999999998 4202.67 1413.3299999999997 4202.29 1413.3299999999997 4201.83L1413.3299999999997 4156.83C1413.3299999999997 4156.37 1412.9599999999998 4156 1412.4999999999998 4156C1412.0399999999997 4156 1411.6699999999998 4156.37 1411.6699999999998 4156.83L1411.6699999999998 4201.12C1410.4599999999998 4201.49 1409.9999999999998 4202.66 1409.9999999999998 4203.5L1409.9999999999998 4205.17C1409.9999999999998 4205.63 1410.3699999999997 4206 1410.8299999999997 4206L1459.1699999999996 4206C1459.6299999999997 4206 1459.9999999999995 4205.63 1459.9999999999995 4205.17L1459.9999999999995 4203.5C1459.9999999999995 4202.49 1459.3299999999995 4201 1457.4999999999995 4201ZM1415.83 4174.33L1434.1699999999998 4174.33C1434.6299999999999 4174.33 1434.9999999999998 4173.96 1434.9999999999998 4173.5L1434.9999999999998 4171.83C1434.9999999999998 4171.37 1435.3699999999997 4171 1435.8299999999997 4171C1436.2899999999997 4171 1436.6699999999996 4171.37 1436.6699999999996 4171.83L1436.6699999999996 4175.17C1436.6699999999996 4175.63 1436.2899999999995 4176 1435.8299999999997 4176C1435.6099999999997 4176 1435.3999999999996 4175.91 1435.2399999999998 4175.75C1434.9199999999998 4175.42 1434.3899999999999 4175.42 1434.0599999999997 4175.74C1433.7399999999998 4176.07 1433.7299999999998 4176.59 1434.0499999999997 4176.92C1434.5299999999997 4177.4 1435.1599999999996 4177.67 1435.8299999999997 4177.67C1437.2099999999998 4177.67 1438.3299999999997 4176.54 1438.3299999999997 4175.17L1438.3299999999997 4171.83C1438.3299999999997 4170.45 1437.2099999999998 4169.33 1435.8299999999997 4169.33C1434.4499999999996 4169.33 1433.3299999999997 4170.45 1433.3299999999997 4171.83L1433.3299999999997 4172.67L1415.8299999999997 4172.67C1415.3699999999997 4172.67 1414.9999999999998 4173.04 1414.9999999999998 4173.5C1414.9999999999998 4173.96 1415.3699999999997 4174.33 1415.8299999999997 4174.33ZM1415.83 4164.33L1429.1699999999998 4164.33C1429.6299999999999 4164.33 1429.9999999999998 4163.96 1429.9999999999998 4163.5L1429.9999999999998 4161.83C1429.9999999999998 4161.37 1430.3699999999997 4161 1430.8299999999997 4161C1431.2899999999997 4161 1431.6699999999996 4161.37 1431.6699999999996 4161.83L1431.6699999999996 4165.17C1431.6699999999996 4165.63 1431.2899999999995 4166 1430.8299999999997 4166C1430.6099999999997 4166 1430.3999999999996 4165.91 1430.2399999999998 4165.75C1429.9199999999998 4165.42 1429.3899999999999 4165.42 1429.0599999999997 4165.74C1428.7399999999998 4166.07 1428.7299999999998 4166.59 1429.0499999999997 4166.92C1429.5299999999997 4167.4 1430.1599999999996 4167.67 1430.8299999999997 4167.67C1432.2099999999998 4167.67 1433.3299999999997 4166.54 1433.3299999999997 4165.17L1433.3299999999997 4161.83C1433.3299999999997 4160.45 1432.2099999999998 4159.33 1430.8299999999997 4159.33C1429.4499999999996 4159.33 1428.3299999999997 4160.45 1428.3299999999997 4161.83L1428.3299999999997 4162.67L1415.8299999999997 4162.67C1415.3699999999997 4162.67 1414.9999999999998 4163.04 1414.9999999999998 4163.5C1414.9999999999998 4163.96 1415.3699999999997 4164.33 1415.8299999999997 4164.33ZM1447.5 4186C1447.27 4186 1447.07 4185.91 1446.91 4185.75C1446.5900000000001 4185.42 1446.0600000000002 4185.42 1445.73 4185.74C1445.4 4186.07 1445.4 4186.59 1445.72 4186.92C1446.19 4187.4 1446.83 4187.67 1447.5 4187.67C1448.88 4187.67 1450 4186.54 1450 4185.17L1450 4181.83C1450 4180.45 1448.88 4179.33 1447.5 4179.33C1446.12 4179.33 1445 4180.45 1445 4181.83L1445 4182.67L1434.17 4182.67C1433.71 4182.67 1433.3300000000002 4183.04 1433.3300000000002 4183.5C1433.3300000000002 4183.96 1433.7100000000003 4184.33 1434.17 4184.33L1445.8300000000002 4184.33C1446.2900000000002 4184.33 1446.67 4183.96 1446.67 4183.5L1446.67 4181.83C1446.67 4181.37 1447.04 4181 1447.5 4181C1447.96 4181 1448.33 4181.37 1448.33 4181.83L1448.33 4185.17C1448.33 4185.63 1447.96 4186 1447.5 4186ZM1415.83 4194.33L1425.83 4194.33C1426.29 4194.33 1426.6699999999998 4193.96 1426.6699999999998 4193.5L1426.6699999999998 4191.83C1426.6699999999998 4191.37 1427.0399999999997 4191 1427.4999999999998 4191C1427.9599999999998 4191 1428.3299999999997 4191.37 1428.3299999999997 4191.83L1428.3299999999997 4195.17C1428.3299999999997 4195.62 1427.9599999999998 4196 1427.4999999999998 4196C1427.2699999999998 4196 1427.0699999999997 4195.91 1426.9099999999999 4195.75C1426.59 4195.42 1426.06 4195.42 1425.7299999999998 4195.74C1425.3999999999999 4196.07 1425.3999999999999 4196.59 1425.7199999999998 4196.92C1426.1899999999998 4197.4 1426.8299999999997 4197.67 1427.4999999999998 4197.67C1428.8799999999999 4197.67 1429.9999999999998 4196.54 1429.9999999999998 4195.17L1429.9999999999998 4191.83C1429.9999999999998 4190.45 1428.8799999999999 4189.33 1427.4999999999998 4189.33C1426.1199999999997 4189.33 1424.9999999999998 4190.45 1424.9999999999998 4191.83L1424.9999999999998 4192.67L1415.8299999999997 4192.67C1415.3699999999997 4192.67 1414.9999999999998 4193.04 1414.9999999999998 4193.5C1414.9999999999998 4193.96 1415.3699999999997 4194.33 1415.8299999999997 4194.33ZM1442.5 4196C1442.27 4196 1442.07 4195.91 1441.91 4195.75C1441.5900000000001 4195.42 1441.0600000000002 4195.42 1440.73 4195.74C1440.4 4196.07 1440.4 4196.59 1440.72 4196.92C1441.19 4197.4 1441.83 4197.67 1442.5 4197.67C1443.88 4197.67 1445 4196.54 1445 4195.17L1445 4191.83C1445 4190.45 1443.88 4189.33 1442.5 4189.33C1441.12 4189.33 1440 4190.45 1440 4191.83L1440 4192.67L1432.5 4192.67C1432.04 4192.67 1431.67 4193.04 1431.67 4193.5C1431.67 4193.96 1432.04 4194.33 1432.5 4194.33L1440.83 4194.33C1441.29 4194.33 1441.6699999999998 4193.96 1441.6699999999998 4193.5L1441.6699999999998 4191.83C1441.6699999999998 4191.37 1442.0399999999997 4191 1442.4999999999998 4191C1442.9599999999998 4191 1443.3299999999997 4191.37 1443.3299999999997 4191.83L1443.3299999999997 4195.17C1443.3299999999997 4195.63 1442.9599999999998 4196 1442.4999999999998 4196ZM1435.83 4164.33L1444.1699999999998 4164.33C1444.6299999999999 4164.33 1444.9999999999998 4163.96 1444.9999999999998 4163.5L1444.9999999999998 4161.83C1444.9999999999998 4161.37 1445.3699999999997 4161 1445.8299999999997 4161C1446.2899999999997 4161 1446.6699999999996 4161.37 1446.6699999999996 4161.83L1446.6699999999996 4165.17C1446.6699999999996 4165.63 1446.2899999999995 4166 1445.8299999999997 4166C1445.6099999999997 4166 1445.3999999999996 4165.91 1445.2399999999998 4165.75C1444.9199999999998 4165.42 1444.3899999999999 4165.42 1444.0599999999997 4165.74C1443.7399999999998 4166.07 1443.7299999999998 4166.59 1444.0499999999997 4166.92C1444.5299999999997 4167.4 1445.1599999999996 4167.67 1445.8299999999997 4167.67C1447.2099999999998 4167.67 1448.3299999999997 4166.54 1448.3299999999997 4165.17L1448.3299999999997 4161.83C1448.3299999999997 4160.45 1447.2099999999998 4159.33 1445.8299999999997 4159.33C1444.4499999999996 4159.33 1443.3299999999997 4160.45 1443.3299999999997 4161.83L1443.3299999999997 4162.67L1435.8299999999997 4162.67C1435.3699999999997 4162.67 1434.9999999999998 4163.04 1434.9999999999998 4163.5C1434.9999999999998 4163.96 1435.3699999999997 4164.33 1435.8299999999997 4164.33ZM1457.5 4199.33C1457.96 4199.33 1458.33 4198.96 1458.33 4198.5L1458.33 4156.83C1458.33 4156.37 1457.96 4156 1457.5 4156C1457.04 4156 1456.67 4156.37 1456.67 4156.83L1456.67 4198.5C1456.67 4198.96 1457.04 4199.33 1457.5 4199.33ZM1415.83 4184.33L1419.1699999999998 4184.33C1419.6299999999999 4184.33 1419.9999999999998 4183.96 1419.9999999999998 4183.5L1419.9999999999998 4181.83C1419.9999999999998 4181.37 1420.3699999999997 4181 1420.8299999999997 4181C1421.2899999999997 4181 1421.6699999999996 4181.37 1421.6699999999996 4181.83L1421.6699999999996 4185.17C1421.6699999999996 4185.63 1421.2899999999995 4186 1420.8299999999997 4186C1420.6099999999997 4186 1420.3999999999996 4185.91 1420.2399999999998 4185.75C1419.9199999999998 4185.42 1419.3899999999999 4185.42 1419.0599999999997 4185.74C1418.7399999999998 4186.07 1418.7299999999998 4186.59 1419.0499999999997 4186.92C1419.5299999999997 4187.4 1420.1599999999996 4187.67 1420.8299999999997 4187.67C1422.2099999999998 4187.67 1423.3299999999997 4186.54 1423.3299999999997 4185.17L1423.3299999999997 4181.83C1423.3299999999997 4180.45 1422.2099999999998 4179.33 1420.8299999999997 4179.33C1419.4499999999996 4179.33 1418.3299999999997 4180.45 1418.3299999999997 4181.83L1418.3299999999997 4182.67L1415.8299999999997 4182.67C1415.3699999999997 4182.67 1414.9999999999998 4183.04 1414.9999999999998 4183.5C1414.9999999999998 4183.96 1415.3699999999997 4184.33 1415.8299999999997 4184.33ZM1429.17 4186C1428.94 4186 1428.73 4185.91 1428.5800000000002 4185.75C1428.2500000000002 4185.42 1427.7200000000003 4185.42 1427.4 4185.74C1427.0700000000002 4186.07 1427.0600000000002 4186.59 1427.39 4186.92C1427.8600000000001 4187.4 1428.49 4187.67 1429.17 4187.67C1430.5500000000002 4187.67 1431.67 4186.54 1431.67 4185.17L1431.67 4181.83C1431.67 4180.45 1430.5500000000002 4179.33 1429.17 4179.33C1427.79 4179.33 1426.67 4180.45 1426.67 4181.83L1426.67 4182.67L1425.8300000000002 4182.67C1425.3700000000001 4182.67 1425.0000000000002 4183.04 1425.0000000000002 4183.5C1425.0000000000002 4183.96 1425.3700000000001 4184.33 1425.8300000000002 4184.33L1427.5000000000002 4184.33C1427.9600000000003 4184.33 1428.3300000000002 4183.96 1428.3300000000002 4183.5L1428.3300000000002 4181.83C1428.3300000000002 4181.37 1428.7100000000003 4181 1429.17 4181C1429.63 4181 1430 4181.37 1430 4181.83L1430 4185.17C1430 4185.63 1429.63 4186 1429.17 4186ZM1447.5 4194.33L1454.17 4194.33C1454.63 4194.33 1455 4193.96 1455 4193.5C1455 4193.04 1454.63 4192.67 1454.17 4192.67L1447.5 4192.67C1447.04 4192.67 1446.67 4193.04 1446.67 4193.5C1446.67 4193.96 1447.04 4194.33 1447.5 4194.33ZM1450.83 4164.33L1454.1699999999998 4164.33C1454.6299999999999 4164.33 1454.9999999999998 4163.96 1454.9999999999998 4163.5C1454.9999999999998 4163.04 1454.6299999999999 4162.67 1454.1699999999998 4162.67L1450.83 4162.67C1450.37 4162.67 1450 4163.04 1450 4163.5C1450 4163.96 1450.37 4164.33 1450.83 4164.33ZM1454.17 4182.67L1452.5 4182.67C1452.04 4182.67 1451.67 4183.04 1451.67 4183.5C1451.67 4183.96 1452.04 4184.33 1452.5 4184.33L1454.17 4184.33C1454.63 4184.33 1455 4183.96 1455 4183.5C1455 4183.04 1454.63 4182.67 1454.17 4182.67ZM1454.17 4172.67L1440.8300000000002 4172.67C1440.3700000000001 4172.67 1440.0000000000002 4173.04 1440.0000000000002 4173.5C1440.0000000000002 4173.96 1440.3700000000001 4174.33 1440.8300000000002 4174.33L1454.17 4174.33C1454.63 4174.33 1455 4173.96 1455 4173.5C1455 4173.04 1454.63 4172.67 1454.17 4172.67Z " fill="#27be6e" fill-opacity="1" transform="matrix(1,0,0,1,-1410,-4156)"></path></svg>