<svg id="SvgjsSvg1031" xmlns="http://www.w3.org/2000/svg" version="1.1" xmlns:xlink="http://www.w3.org/1999/xlink" xmlns:svgjs="http://svgjs.com/svgjs" width="50" height="35" viewBox="0 0 50 35"><title>Shape 1</title><desc>Created with Avocode.</desc><defs id="SvgjsDefs1032"></defs><path id="SvgjsPath1033" d="M1214.06 4173.92C1213.8799999999999 4173.74 1213.6299999999999 4173.65 1213.3799999999999 4173.65L1208.1499999999999 4173.65C1207.59 4173.65 1207.1399999999999 4174.12 1207.1399999999999 4174.69L1207.1399999999999 4183.2699999999995C1207.1399999999999 4183.839999999999 1207.59 4184.3099999999995 1208.1499999999999 4184.3099999999995L1216.4399999999998 4184.3099999999995C1216.9999999999998 4184.3099999999995 1217.4599999999998 4183.839999999999 1217.4599999999998 4183.2699999999995L1217.4599999999998 4177.53C1217.4599999999998 4177.23 1217.34 4176.95 1217.12 4176.75ZM1188.02 4189.59C1186.79 4189.59 1185.6299999999999 4190.08 1184.76 4190.97C1183.8799999999999 4191.87 1183.39 4193.04 1183.39 4194.3C1183.39 4195.55 1183.8700000000001 4196.72 1184.76 4197.62C1185.64 4198.51 1186.79 4199 1188.02 4199C1190.52 4199 1192.56 4196.89 1192.56 4194.3C1192.56 4191.7 1190.52 4189.59 1188.02 4189.59ZM1212.88 4189.59C1211.66 4189.59 1210.5 4190.08 1209.6200000000001 4190.97C1208.74 4191.87 1208.2600000000002 4193.04 1208.2600000000002 4194.3C1208.2600000000002 4195.55 1208.7300000000002 4196.72 1209.6200000000001 4197.62C1210.5100000000002 4198.51 1211.66 4199 1212.88 4199C1215.38 4199 1217.42 4196.89 1217.42 4194.3C1217.42 4191.7 1215.38 4189.59 1212.88 4189.59ZM1215.42 4182.22L1209.17 4182.22L1209.17 4175.7300000000005L1212.98 4175.7300000000005L1215.42 4177.990000000001ZM1175.08 4181.41L1187.4299999999998 4181.48C1187.9899999999998 4181.48 1188.4499999999998 4181.0199999999995 1188.4599999999998 4180.44C1188.4699999999998 4179.86 1188.0199999999998 4179.389999999999 1187.4499999999998 4179.389999999999L1175.11 4179.3099999999995C1175.1 4179.3099999999995 1175.1 4179.3099999999995 1175.1 4179.3099999999995C1174.54 4179.3099999999995 1174.08 4179.7699999999995 1174.08 4180.349999999999C1174.07 4180.929999999999 1174.52 4181.41 1175.08 4181.41ZM1181.22 4190.88L1179.18 4190.88L1179.18 4188.1C1179.18 4187.52 1178.72 4187.05 1178.16 4187.05C1177.6000000000001 4187.05 1177.14 4187.52 1177.14 4188.1L1177.14 4191.92C1177.14 4192.5 1177.6000000000001 4192.97 1178.16 4192.97L1181.22 4192.97C1181.78 4192.97 1182.24 4192.5 1182.24 4191.92C1182.24 4191.35 1181.78 4190.88 1181.22 4190.88ZM1186.39 4185.18C1186.39 4184.6 1185.93 4184.13 1185.3700000000001 4184.13L1173.0200000000002 4184.13C1172.4600000000003 4184.13 1172.0000000000002 4184.6 1172.0000000000002 4185.18C1172.0000000000002 4185.75 1172.4600000000003 4186.22 1173.0200000000002 4186.22L1185.3700000000001 4186.22C1185.93 4186.22 1186.39 4185.76 1186.39 4185.18ZM1177.16 4176.66L1189.51 4176.66C1190.07 4176.66 1190.53 4176.19 1190.53 4175.61C1190.53 4175.04 1190.07 4174.57 1189.51 4174.57L1177.16 4174.57C1176.6000000000001 4174.57 1176.14 4175.04 1176.14 4175.61C1176.14 4176.19 1176.6000000000001 4176.66 1177.16 4176.66ZM1212.88 4196.91C1211.47 4196.91 1210.2900000000002 4195.72 1210.2900000000002 4194.3C1210.2900000000002 4192.87 1211.4700000000003 4191.68 1212.88 4191.68C1214.2600000000002 4191.68 1215.38 4192.85 1215.38 4194.3C1215.38 4195.74 1214.2600000000002 4196.91 1212.88 4196.91ZM1188.02 4196.91C1186.61 4196.91 1185.43 4195.72 1185.43 4194.3C1185.43 4192.87 1186.6100000000001 4191.68 1188.02 4191.68C1189.4 4191.68 1190.52 4192.85 1190.52 4194.3C1190.52 4195.74 1189.4 4196.91 1188.02 4196.91ZM1221.62 4175.25L1214.33 4169.05C1214.1499999999999 4168.89 1213.9299999999998 4168.81 1213.6799999999998 4168.81L1205.11 4168.81L1205.11 4165.04C1205.11 4164.47 1204.6499999999999 4164 1204.09 4164L1178.1599999999999 4164C1177.6 4164 1177.1399999999999 4164.47 1177.1399999999999 4165.04L1177.1399999999999 4172.7C1177.1399999999999 4173.2699999999995 1177.6 4173.74 1178.1599999999999 4173.74C1178.7199999999998 4173.74 1179.1799999999998 4173.2699999999995 1179.1799999999998 4172.7L1179.1799999999998 4166.09L1203.08 4166.09L1203.08 4190.88L1194.73 4190.88C1194.17 4190.88 1193.72 4191.35 1193.72 4191.92C1193.72 4192.5 1194.17 4192.97 1194.73 4192.97L1207.17 4192.97C1207.73 4192.97 1208.18 4192.5 1208.18 4191.92C1208.18 4191.35 1207.73 4190.88 1207.17 4190.88L1205.1200000000001 4190.88L1205.1200000000001 4170.900000000001L1213.3300000000002 4170.900000000001L1219.9600000000003 4176.540000000001L1219.8900000000003 4190.860000000001L1218.8300000000004 4190.860000000001C1218.2700000000004 4190.860000000001 1217.8200000000004 4191.330000000001 1217.8200000000004 4191.900000000001C1217.8200000000004 4192.4800000000005 1218.2700000000004 4192.950000000001 1218.8300000000004 4192.950000000001L1220.9000000000003 4192.950000000001C1221.4600000000003 4192.950000000001 1221.9200000000003 4192.490000000001 1221.9200000000003 4191.910000000001L1222.0000000000002 4176.06C1221.9900000000002 4175.75 1221.8600000000001 4175.450000000001 1221.6200000000001 4175.25Z " fill="#27be6e" fill-opacity="1" transform="matrix(1,0,0,1,-1172,-4164)"></path></svg>