<svg id="SvgjsSvg1025" xmlns="http://www.w3.org/2000/svg" version="1.1" xmlns:xlink="http://www.w3.org/1999/xlink" xmlns:svgjs="http://svgjs.com/svgjs" width="45" height="50" viewBox="0 0 45 50"><title>Shape 1</title><desc>Created with Avocode.</desc><defs id="SvgjsDefs1026"></defs><path id="SvgjsPath1027" d="M734.546 4156L707.7510000000001 4156C704.58 4156 702.0000000000001 4158.53 702.0000000000001 4161.65L702.0000000000001 4198.46C702.0000000000001 4201.58 704.5730000000001 4204.11 707.7350000000001 4204.11L727.8510000000001 4204.11C728.3800000000001 4204.11 728.8090000000001 4203.69 728.8090000000001 4203.17C728.8090000000001 4202.65 728.3800000000001 4202.2300000000005 727.8510000000001 4202.2300000000005L707.7350000000001 4202.2300000000005C705.6290000000001 4202.2300000000005 703.9150000000001 4200.540000000001 703.9150000000001 4198.46L703.9150000000001 4196.57L705.9970000000001 4196.57C706.393 4197.66 707.4540000000001 4198.45 708.7020000000001 4198.45C710.2860000000001 4198.45 711.5740000000001 4197.179999999999 711.5740000000001 4195.62C711.5740000000001 4194.0599999999995 710.2860000000001 4192.79 708.7020000000001 4192.79C707.4540000000001 4192.79 706.3930000000001 4193.58 705.9970000000001 4194.68L703.9150000000001 4194.68L703.9150000000001 4186.1900000000005L705.9970000000001 4186.1900000000005C706.393 4187.290000000001 707.4540000000001 4188.080000000001 708.7020000000001 4188.080000000001C710.2860000000001 4188.080000000001 711.5740000000001 4186.81 711.5740000000001 4185.250000000001C711.5740000000001 4183.680000000001 710.2860000000001 4182.410000000001 708.7020000000001 4182.410000000001C707.4540000000001 4182.410000000001 706.3930000000001 4183.200000000001 705.9970000000001 4184.300000000001L703.9150000000001 4184.300000000001L703.9150000000001 4175.810000000001L705.9970000000001 4175.810000000001C706.393 4176.910000000002 707.4540000000001 4177.700000000002 708.7020000000001 4177.700000000002C710.2860000000001 4177.700000000002 711.5740000000001 4176.430000000001 711.5740000000001 4174.870000000002C711.5740000000001 4173.310000000001 710.2860000000001 4172.040000000002 708.7020000000001 4172.040000000002C707.4540000000001 4172.040000000002 706.3930000000001 4172.830000000002 705.9970000000001 4173.920000000002L703.9150000000001 4173.920000000002L703.9150000000001 4165.430000000002L705.9970000000001 4165.430000000002C706.393 4166.5300000000025 707.4540000000001 4167.320000000002 708.7020000000001 4167.320000000002C710.2860000000001 4167.320000000002 711.5740000000001 4166.050000000002 711.5740000000001 4164.4900000000025C711.5740000000001 4162.930000000002 710.2860000000001 4161.660000000003 708.7020000000001 4161.660000000003C707.4540000000001 4161.660000000003 706.3930000000001 4162.450000000003 705.9970000000001 4163.550000000003L703.9150000000001 4163.550000000003L703.9150000000001 4161.650000000003C703.9150000000001 4159.580000000004 705.6360000000001 4157.890000000003 707.7510000000001 4157.890000000003L734.546 4157.890000000003C736.662 4157.890000000003 738.383 4159.580000000003 738.383 4161.670000000003L738.383 4186.970000000003C738.383 4187.490000000003 738.812 4187.920000000003 739.34 4187.920000000003C739.869 4187.920000000003 740.298 4187.4900000000025 740.298 4186.970000000003L740.298 4161.670000000003C740.298 4158.540000000003 737.718 4156.000000000003 734.546 4156.000000000003ZM725.976 4182.41L714.447 4182.41C713.918 4182.41 713.489 4182.84 713.489 4183.36C713.489 4183.88 713.918 4184.299999999999 714.447 4184.299999999999L725.976 4184.299999999999C726.505 4184.299999999999 726.933 4183.879999999999 726.933 4183.36C726.933 4182.839999999999 726.505 4182.41 725.976 4182.41ZM725.976 4187.13L714.447 4187.13C713.918 4187.13 713.489 4187.55 713.489 4188.07C713.489 4188.599999999999 713.918 4189.0199999999995 714.447 4189.0199999999995L725.976 4189.0199999999995C726.505 4189.0199999999995 726.933 4188.599999999999 726.933 4188.07C726.933 4187.549999999999 726.505 4187.13 725.976 4187.13ZM725.976 4172.98L714.447 4172.98C713.918 4172.98 713.489 4173.4 713.489 4173.919999999999C713.489 4174.44 713.918 4174.869999999999 714.447 4174.869999999999L725.976 4174.869999999999C726.505 4174.869999999999 726.933 4174.439999999999 726.933 4173.919999999999C726.933 4173.399999999999 726.505 4172.98 725.976 4172.98ZM725.976 4168.26L714.447 4168.26C713.918 4168.26 713.489 4168.6900000000005 713.489 4169.21C713.489 4169.7300000000005 713.918 4170.15 714.447 4170.15L725.976 4170.15C726.505 4170.15 726.933 4169.73 726.933 4169.21C726.933 4168.69 726.505 4168.26 725.976 4168.26ZM725.976 4191.85L714.447 4191.85C713.918 4191.85 713.489 4192.27 713.489 4192.79C713.489 4193.31 713.918 4193.74 714.447 4193.74L725.976 4193.74C726.505 4193.74 726.933 4193.3099999999995 726.933 4192.79C726.933 4192.2699999999995 726.505 4191.85 725.976 4191.85ZM725.976 4177.7L714.447 4177.7C713.918 4177.7 713.489 4178.12 713.489 4178.639999999999C713.489 4179.16 713.918 4179.579999999999 714.447 4179.579999999999L725.976 4179.579999999999C726.505 4179.579999999999 726.933 4179.159999999999 726.933 4178.639999999999C726.933 4178.119999999999 726.505 4177.7 725.976 4177.7ZM725.976 4163.55L714.447 4163.55C713.918 4163.55 713.489 4163.97 713.489 4164.49C713.489 4165.01 713.918 4165.429999999999 714.447 4165.429999999999L725.976 4165.429999999999C726.505 4165.429999999999 726.933 4165.009999999999 726.933 4164.49C726.933 4163.969999999999 726.505 4163.55 725.976 4163.55ZM725.976 4196.57L714.447 4196.57C713.918 4196.57 713.489 4196.99 713.489 4197.509999999999C713.489 4198.03 713.918 4198.449999999999 714.447 4198.449999999999L725.976 4198.449999999999C726.505 4198.449999999999 726.933 4198.029999999999 726.933 4197.509999999999C726.933 4196.989999999999 726.505 4196.57 725.976 4196.57ZM735.511 4187.13L730.723 4187.13C730.1949999999999 4187.13 729.766 4187.55 729.766 4188.07C729.766 4188.599999999999 730.1949999999999 4189.0199999999995 730.723 4189.0199999999995L735.511 4189.0199999999995C736.039 4189.0199999999995 736.468 4188.599999999999 736.468 4188.07C736.468 4187.549999999999 736.039 4187.13 735.511 4187.13ZM735.511 4172.98L730.723 4172.98C730.1949999999999 4172.98 729.766 4173.4 729.766 4173.919999999999C729.766 4174.44 730.1949999999999 4174.869999999999 730.723 4174.869999999999L735.511 4174.869999999999C736.039 4174.869999999999 736.468 4174.439999999999 736.468 4173.919999999999C736.468 4173.399999999999 736.039 4172.98 735.511 4172.98ZM735.511 4182.41L730.723 4182.41C730.1949999999999 4182.41 729.766 4182.84 729.766 4183.36C729.766 4183.88 730.1949999999999 4184.299999999999 730.723 4184.299999999999L735.511 4184.299999999999C736.039 4184.299999999999 736.468 4183.879999999999 736.468 4183.36C736.468 4182.839999999999 736.039 4182.41 735.511 4182.41ZM735.511 4168.26L730.723 4168.26C730.1949999999999 4168.26 729.766 4168.6900000000005 729.766 4169.21C729.766 4169.7300000000005 730.1949999999999 4170.15 730.723 4170.15L735.511 4170.15C736.039 4170.15 736.468 4169.73 736.468 4169.21C736.468 4168.69 736.039 4168.26 735.511 4168.26ZM735.511 4163.55L730.723 4163.55C730.1949999999999 4163.55 729.766 4163.97 729.766 4164.49C729.766 4165.01 730.1949999999999 4165.429999999999 730.723 4165.429999999999L735.511 4165.429999999999C736.039 4165.429999999999 736.468 4165.009999999999 736.468 4164.49C736.468 4163.969999999999 736.039 4163.55 735.511 4163.55ZM735.511 4177.7L730.723 4177.7C730.1949999999999 4177.7 729.766 4178.12 729.766 4178.639999999999C729.766 4179.16 730.1949999999999 4179.579999999999 730.723 4179.579999999999L735.511 4179.579999999999C736.039 4179.579999999999 736.468 4179.159999999999 736.468 4178.639999999999C736.468 4178.119999999999 736.039 4177.7 735.511 4177.7ZM708.702 4173.92C709.23 4173.92 709.659 4174.35 709.659 4174.87C709.659 4175.39 709.23 4175.8099999999995 708.702 4175.8099999999995C708.174 4175.8099999999995 707.745 4175.389999999999 707.745 4174.87C707.745 4174.349999999999 708.174 4173.92 708.702 4173.92ZM708.702 4194.68C709.23 4194.68 709.659 4195.1 709.659 4195.62C709.659 4196.14 709.23 4196.57 708.702 4196.57C708.174 4196.57 707.745 4196.139999999999 707.745 4195.62C707.745 4195.099999999999 708.174 4194.68 708.702 4194.68ZM708.702 4184.3C709.23 4184.3 709.659 4184.72 709.659 4185.24C709.659 4185.7699999999995 709.23 4186.19 708.702 4186.19C708.174 4186.19 707.745 4185.7699999999995 707.745 4185.24C707.745 4184.719999999999 708.174 4184.3 708.702 4184.3ZM708.702 4163.55C709.23 4163.55 709.659 4163.97 709.659 4164.49C709.659 4165.01 709.23 4165.429999999999 708.702 4165.429999999999C708.174 4165.429999999999 707.745 4165.009999999999 707.745 4164.49C707.745 4163.969999999999 708.174 4163.55 708.702 4163.55ZM746.043 4195.62L742.213 4195.62L742.213 4191.849999999999C742.213 4191.329999999999 741.784 4190.91 741.255 4190.91L737.426 4190.91C736.897 4190.91 736.4680000000001 4191.33 736.4680000000001 4191.849999999999L736.4680000000001 4195.62L732.638 4195.62C732.11 4195.62 731.681 4196.04 731.681 4196.57L731.681 4200.34C731.681 4200.860000000001 732.11 4201.28 732.638 4201.28L736.4680000000001 4201.28L736.4680000000001 4205.0599999999995C736.4680000000001 4205.58 736.897 4205.999999999999 737.426 4205.999999999999L741.255 4205.999999999999C741.784 4205.999999999999 742.213 4205.579999999999 742.213 4205.0599999999995L742.213 4201.28L746.043 4201.28C746.571 4201.28 747 4200.86 747 4200.34L747 4196.57C747 4196.04 746.571 4195.62 746.043 4195.62ZM745.085 4199.4L741.255 4199.4C740.726 4199.4 740.298 4199.82 740.298 4200.339999999999L740.298 4204.11L738.383 4204.11L738.383 4200.339999999999C738.383 4199.819999999999 737.9540000000001 4199.4 737.4250000000001 4199.4L733.5960000000001 4199.4L733.5960000000001 4197.509999999999L737.4250000000001 4197.509999999999C737.9540000000001 4197.509999999999 738.383 4197.089999999999 738.383 4196.57L738.383 4192.79L740.298 4192.79L740.298 4196.57C740.298 4197.09 740.726 4197.509999999999 741.255 4197.509999999999L745.085 4197.509999999999Z " fill="#27be6e" fill-opacity="1" transform="matrix(1,0,0,1,-702,-4156)"></path></svg>