<svg id="SvgjsSvg1028" xmlns="http://www.w3.org/2000/svg" version="1.1" xmlns:xlink="http://www.w3.org/1999/xlink" xmlns:svgjs="http://svgjs.com/svgjs" width="24" height="45" viewBox="0 0 24 45"><title>Forma 1</title><desc>Created with Avocode.</desc><defs id="SvgjsDefs1029"></defs><path id="SvgjsPath1030" d="M967.386 4161.61L966.8639999999999 4161.61L966.8639999999999 4158.849999999999C966.8639999999999 4158.379999999999 966.4799999999999 4157.999999999999 966.007 4157.999999999999L954.0379999999999 4157.999999999999C953.5649999999999 4157.999999999999 953.1809999999999 4158.379999999999 953.1809999999999 4158.849999999999L953.1809999999999 4161.61L952.6129999999999 4161.61C950.1129999999999 4161.61 947.9999999999999 4163.799999999999 947.9999999999999 4166.4L947.9999999999999 4198.44C947.9999999999999 4200.95 950.0699999999999 4203 952.6129999999999 4203L967.386 4203C969.93 4203 972 4200.95 972 4198.44L972 4166.179999999999C972 4163.659999999999 969.93 4161.61 967.386 4161.61ZM967.386 4201.3L952.6139999999999 4201.3C951.0149999999999 4201.3 949.7139999999999 4200.02 949.7139999999999 4198.4400000000005L949.7139999999999 4166.400000000001C949.7139999999999 4164.750000000001 951.069 4163.31 952.6139999999999 4163.31L953.1809999999999 4163.31L953.1809999999999 4165.96L952.266 4165.96C951.793 4165.96 951.409 4166.34 951.409 4166.81C951.409 4167.280000000001 951.793 4167.660000000001 952.266 4167.660000000001L967.7099999999999 4167.660000000001C968.1829999999999 4167.660000000001 968.5669999999999 4167.280000000001 968.5669999999999 4166.81C968.5669999999999 4166.34 968.1829999999999 4165.96 967.7099999999999 4165.96L966.8639999999999 4165.96L966.8639999999999 4163.31L967.387 4163.31C968.9849999999999 4163.31 970.286 4164.6 970.286 4166.18L970.286 4198.4400000000005C970.286 4200.02 968.9849999999999 4201.3 967.386 4201.3ZM954.895 4159.69L965.15 4159.69L965.15 4165.96L954.895 4165.96ZM966.853 4181.83L965.161 4181.83C964.2159999999999 4181.83 963.4469999999999 4182.59 963.4469999999999 4183.53L963.4469999999999 4184.37C963.4469999999999 4185.3 964.2159999999999 4186.0599999999995 965.161 4186.0599999999995L966.853 4186.0599999999995C967.798 4186.0599999999995 968.567 4185.299999999999 968.567 4184.37L968.567 4183.53C968.567 4182.59 967.798 4181.83 966.853 4181.83ZM960.887 4191.99L959.1959999999999 4191.99C958.2499999999999 4191.99 957.4809999999999 4192.75 957.4809999999999 4193.69L957.4809999999999 4194.53C957.4809999999999 4195.46 958.2499999999999 4196.219999999999 959.1959999999999 4196.219999999999L960.887 4196.219999999999C961.832 4196.219999999999 962.601 4195.459999999999 962.601 4194.53L962.601 4193.69C962.601 4192.75 961.832 4191.99 960.887 4191.99ZM966.853 4191.99L965.161 4191.99C964.2159999999999 4191.99 963.4469999999999 4192.75 963.4469999999999 4193.69L963.4469999999999 4194.53C963.4469999999999 4195.46 964.2159999999999 4196.219999999999 965.161 4196.219999999999L966.853 4196.219999999999C967.798 4196.219999999999 968.567 4195.459999999999 968.567 4194.53L968.567 4193.69C968.567 4192.75 967.798 4191.99 966.853 4191.99ZM960.887 4181.83L959.1959999999999 4181.83C958.2499999999999 4181.83 957.4809999999999 4182.59 957.4809999999999 4183.53L957.4809999999999 4184.37C957.4809999999999 4185.3 958.2499999999999 4186.0599999999995 959.1959999999999 4186.0599999999995L960.887 4186.0599999999995C961.832 4186.0599999999995 962.601 4185.299999999999 962.601 4184.37L962.601 4183.53C962.601 4182.59 961.832 4181.83 960.887 4181.83ZM966.853 4186.96L965.161 4186.96C964.2159999999999 4186.96 963.4469999999999 4187.72 963.4469999999999 4188.66L963.4469999999999 4189.49C963.4469999999999 4190.429999999999 964.2159999999999 4191.19 965.161 4191.19L966.853 4191.19C967.798 4191.19 968.567 4190.429999999999 968.567 4189.49L968.567 4188.66C968.567 4187.72 967.798 4186.96 966.853 4186.96ZM960.887 4186.96L959.1959999999999 4186.96C958.2499999999999 4186.96 957.4809999999999 4187.72 957.4809999999999 4188.66L957.4809999999999 4189.49C957.4809999999999 4190.429999999999 958.2499999999999 4191.19 959.1959999999999 4191.19L960.887 4191.19C961.832 4191.19 962.601 4190.429999999999 962.601 4189.49L962.601 4188.66C962.601 4187.72 961.832 4186.96 960.887 4186.96ZM954.884 4181.83L953.193 4181.83C952.2479999999999 4181.83 951.4789999999999 4182.59 951.4789999999999 4183.53L951.4789999999999 4184.37C951.4789999999999 4185.3 952.2479999999999 4186.0599999999995 953.193 4186.0599999999995L954.884 4186.0599999999995C955.8290000000001 4186.0599999999995 956.5980000000001 4185.299999999999 956.5980000000001 4184.37L956.5980000000001 4183.53C956.5980000000001 4182.59 955.8290000000001 4181.83 954.884 4181.83ZM954.884 4191.99L953.193 4191.99C952.2479999999999 4191.99 951.4789999999999 4192.75 951.4789999999999 4193.69L951.4789999999999 4194.53C951.4789999999999 4195.46 952.2479999999999 4196.219999999999 953.193 4196.219999999999L954.884 4196.219999999999C955.8290000000001 4196.219999999999 956.5980000000001 4195.459999999999 956.5980000000001 4194.53L956.5980000000001 4193.69C956.5980000000001 4192.75 955.8290000000001 4191.99 954.884 4191.99ZM954.884 4186.96L953.193 4186.96C952.2479999999999 4186.96 951.4789999999999 4187.72 951.4789999999999 4188.66L951.4789999999999 4189.49C951.4789999999999 4190.429999999999 952.2479999999999 4191.19 953.193 4191.19L954.884 4191.19C955.8290000000001 4191.19 956.5980000000001 4190.429999999999 956.5980000000001 4189.49L956.5980000000001 4188.66C956.5980000000001 4187.72 955.8290000000001 4186.96 954.884 4186.96ZM961.744 4197.94L958.339 4197.94C957.865 4197.94 957.4810000000001 4198.32 957.4810000000001 4198.79C957.4810000000001 4199.26 957.8650000000001 4199.64 958.339 4199.64L961.744 4199.64C962.217 4199.64 962.601 4199.26 962.601 4198.79C962.601 4198.32 962.217 4197.94 961.744 4197.94ZM965.161 4184.37L965.161 4183.53L966.853 4183.53L966.853 4184.37ZM965.161 4194.53L965.161 4193.69L966.853 4193.69L966.853 4194.53ZM953.193 4184.37L953.193 4183.53L954.884 4183.53L954.884 4184.37ZM953.193 4194.53L953.193 4193.69L954.884 4193.69L954.884 4194.53ZM959.196 4184.37L959.196 4183.53L960.8870000000001 4183.53L960.8870000000001 4184.37ZM959.196 4194.53L959.196 4193.69L960.8870000000001 4193.69L960.8870000000001 4194.53ZM965.161 4189.49L965.161 4188.66L966.853 4188.66L966.853 4189.49ZM953.193 4189.49L953.193 4188.66L954.884 4188.66L954.884 4189.49ZM959.196 4189.49L959.196 4188.66L960.8870000000001 4188.66L960.8870000000001 4189.49ZM953.123 4179.32L966.8380000000001 4179.32C967.7830000000001 4179.32 968.5520000000001 4178.5599999999995 968.5520000000001 4177.62L968.5520000000001 4171.58C968.5520000000001 4170.65 967.7830000000001 4169.89 966.8380000000001 4169.89L953.123 4169.89C952.178 4169.89 951.409 4170.650000000001 951.409 4171.58L951.409 4177.62C951.409 4178.5599999999995 952.178 4179.32 953.123 4179.32ZM953.123 4171.58L955.3040000000001 4171.58L956.839 4173.1C957.0060000000001 4173.26 957.225 4173.35 957.445 4173.35C957.6640000000001 4173.35 957.883 4173.26 958.051 4173.1C958.3860000000001 4172.77 958.3860000000001 4172.2300000000005 958.051 4171.900000000001L957.7280000000001 4171.580000000001L966.8380000000001 4171.580000000001L966.8380000000001 4177.620000000001L963.835 4177.620000000001L960.5880000000001 4174.410000000001C960.253 4174.080000000001 959.7110000000001 4174.080000000001 959.3760000000001 4174.410000000001C959.041 4174.740000000001 959.041 4175.280000000001 959.3760000000001 4175.610000000001L961.4110000000001 4177.620000000001L953.123 4177.620000000001Z " fill="#27be6e" fill-opacity="1" transform="matrix(1,0,0,1,-948,-4158)"></path></svg>