<svg id="SvgjsSvg1012" xmlns="http://www.w3.org/2000/svg" version="1.1" xmlns:xlink="http://www.w3.org/1999/xlink" xmlns:svgjs="http://svgjs.com/svgjs" width="24" height="24" viewBox="0 0 24 24"><title>Forma 1</title><desc>Created with Avocode.</desc><defs id="SvgjsDefs1013"></defs><path id="SvgjsPath1014" d="M1093.39 1907.98C1092.3200000000002 1906.14 1090.8600000000001 1904.68 1089.0200000000002 1903.6100000000001C1087.1900000000003 1902.5300000000002 1085.1800000000003 1902.0000000000002 1083.0000000000002 1902.0000000000002C1080.8200000000002 1902.0000000000002 1078.8100000000002 1902.5300000000002 1076.9800000000002 1903.6100000000001C1075.1400000000003 1904.68 1073.6800000000003 1906.14 1072.6100000000004 1907.98C1071.5300000000004 1909.81 1071.0000000000005 1911.82 1071.0000000000005 1914C1071.0000000000005 1916.18 1071.5300000000004 1918.19 1072.6100000000004 1920.02C1073.6800000000003 1921.86 1075.1400000000003 1923.32 1076.9800000000002 1924.3899999999999C1078.8100000000002 1925.4599999999998 1080.8200000000002 1925.9999999999998 1083.0000000000002 1925.9999999999998C1085.1800000000003 1925.9999999999998 1087.1900000000003 1925.4599999999998 1089.0200000000002 1924.3899999999999C1090.8600000000001 1923.32 1092.3200000000002 1921.86 1093.39 1920.02C1094.47 1918.19 1095 1916.18 1095 1914C1095 1911.82 1094.47 1909.81 1093.39 1907.98ZM1090.78 1912.17L1082.3 1920.66C1082.1 1920.8500000000001 1081.86 1920.95 1081.58 1920.95C1081.31 1920.95 1081.07 1920.8500000000001 1080.87 1920.66L1075.2199999999998 1915C1075.0299999999997 1914.81 1074.9399999999998 1914.58 1074.9399999999998 1914.3C1074.9399999999998 1914.01 1075.0299999999997 1913.77 1075.2199999999998 1913.58L1076.6399999999999 1912.1699999999998C1076.84 1911.9699999999998 1077.07 1911.87 1077.34 1911.87C1077.61 1911.87 1077.85 1911.9699999999998 1078.05 1912.1699999999998L1081.58 1915.6999999999998L1087.9499999999998 1909.34C1088.1499999999999 1909.1499999999999 1088.3899999999999 1909.05 1088.6599999999999 1909.05C1088.9299999999998 1909.05 1089.1599999999999 1909.1499999999999 1089.36 1909.34L1090.78 1910.75C1090.97 1910.94 1091.06 1911.18 1091.06 1911.47C1091.06 1911.75 1090.97 1911.98 1090.78 1912.17Z " fill="#93deb6" fill-opacity="1" transform="matrix(1,0,0,1,-1071,-1902)"></path></svg>