<svg id="SvgjsSvg1052" xmlns="http://www.w3.org/2000/svg" version="1.1" xmlns:xlink="http://www.w3.org/1999/xlink" xmlns:svgjs="http://svgjs.com/svgjs" width="15" height="15" viewBox="0 0 15 15"><title>Shape 1</title><desc>Created with Avocode.</desc><defs id="SvgjsDefs1053"></defs><path id="SvgjsPath1054" d="M668.55 2500.2C668.866 2499.7999999999997 669.0169999999999 2499.3799999999997 668.9979999999999 2498.95C668.9789999999999 2498.47 668.7589999999999 2498.1 668.579 2497.87C668.7879999999999 2497.3599999999997 668.8689999999999 2496.56 668.169 2495.94C667.656 2495.4900000000002 666.785 2495.28 665.578 2495.34C664.7289999999999 2495.38 664.019 2495.53 663.99 2495.54L663.987 2495.54C663.826 2495.57 663.655 2495.6 663.48 2495.64C663.467 2495.44 663.503 2494.94 663.884 2493.8199999999997C664.335 2492.4799999999996 664.3100000000001 2491.4599999999996 663.8000000000001 2490.7699999999995C663.2640000000001 2490.0599999999995 662.4090000000001 2489.9999999999995 662.157 2489.9999999999995C661.9150000000001 2489.9999999999995 661.693 2490.0999999999995 661.5350000000001 2490.2799999999997C661.176 2490.68 661.2180000000001 2491.43 661.263 2491.7699999999995C660.837 2492.8799999999997 659.644 2495.5999999999995 658.634 2496.3599999999997C658.614 2496.37 658.5980000000001 2496.39 658.582 2496.3999999999996C658.285 2496.7099999999996 658.085 2497.0399999999995 657.95 2497.3299999999995C657.759 2497.2299999999996 657.543 2497.1699999999996 657.311 2497.1699999999996L655.342 2497.1699999999996C654.6 2497.1699999999996 654 2497.7599999999998 654 2498.47L654 2503.5699999999997C654 2504.2899999999995 654.603 2504.8799999999997 655.342 2504.8799999999997L657.311 2504.8799999999997C657.5980000000001 2504.8799999999997 657.866 2504.7899999999995 658.085 2504.64L658.8430000000001 2504.73C658.96 2504.7400000000002 661.0250000000001 2505 663.1450000000001 2504.96C663.5290000000001 2504.98 663.8900000000001 2505 664.2260000000001 2505C664.8030000000001 2505 665.3070000000001 2504.96 665.7260000000001 2504.87C666.7130000000001 2504.66 667.3880000000001 2504.2599999999998 667.7300000000001 2503.66C667.9910000000001 2503.2 667.9910000000001 2502.74 667.9490000000002 2502.46C668.5910000000002 2501.89 668.7040000000002 2501.27 668.6820000000001 2500.83C668.6690000000001 2500.5699999999997 668.6110000000001 2500.36 668.5500000000002 2500.2ZM654.871 2503.57L654.871 2498.4700000000003C654.871 2498.2200000000003 655.084 2498.01 655.342 2498.01L657.311 2498.01C657.572 2498.01 657.782 2498.2200000000003 657.782 2498.4700000000003L657.782 2503.57C657.782 2503.82 657.5690000000001 2504.03 657.311 2504.03L655.342 2504.03C655.081 2504.03 654.871 2503.82 654.871 2503.57ZM667.724 2499.83C667.5880000000001 2499.97 667.562 2500.18 667.6650000000001 2500.34C667.6650000000001 2500.34 667.7980000000001 2500.56 667.8140000000001 2500.8700000000003C667.8360000000001 2501.28 667.633 2501.6400000000003 667.2070000000001 2501.9500000000003C667.0560000000002 2502.0600000000004 666.9940000000001 2502.26 667.0590000000001 2502.4300000000003C667.0590000000001 2502.4400000000005 667.1980000000001 2502.8500000000004 666.9720000000001 2503.2400000000002C666.7550000000001 2503.6200000000003 666.2750000000001 2503.8900000000003 665.5450000000001 2504.0400000000004C664.9610000000001 2504.1600000000003 664.1680000000001 2504.1800000000003 663.1930000000001 2504.1100000000006C663.1800000000001 2504.1100000000006 663.1640000000001 2504.1100000000006 663.1480000000001 2504.1100000000006C661.0730000000001 2504.1500000000005 658.9760000000001 2503.890000000001 658.9530000000001 2503.890000000001L658.95 2503.890000000001L658.624 2503.850000000001C658.643 2503.7600000000007 658.653 2503.670000000001 658.653 2503.5700000000006L658.653 2498.4700000000007C658.653 2498.3400000000006 658.63 2498.2000000000007 658.592 2498.080000000001C658.65 2497.870000000001 658.811 2497.4100000000008 659.192 2497.0100000000007C660.641 2495.890000000001 662.057 2492.120000000001 662.119 2491.9600000000005C662.144 2491.8900000000003 662.1510000000001 2491.8200000000006 662.138 2491.7500000000005C662.0830000000001 2491.4000000000005 662.1020000000001 2490.9700000000003 662.1800000000001 2490.8400000000006C662.3510000000001 2490.8400000000006 662.812 2490.890000000001 663.09 2491.2600000000007C663.419 2491.7100000000005 663.4060000000001 2492.5000000000005 663.051 2493.540000000001C662.509 2495.140000000001 662.464 2495.980000000001 662.893 2496.350000000001C663.106 2496.540000000001 663.39 2496.5500000000006 663.596 2496.4700000000007C663.793 2496.4300000000007 663.98 2496.390000000001 664.158 2496.3600000000006C664.171 2496.3600000000006 664.187 2496.3600000000006 664.2 2496.3500000000004C665.19 2496.1400000000003 666.965 2496.0200000000004 667.581 2496.5600000000004C668.104 2497.03 667.7330000000001 2497.6400000000003 667.691 2497.7100000000005C667.572 2497.8800000000006 667.6070000000001 2498.1100000000006 667.769 2498.2500000000005C667.772 2498.2600000000007 668.111 2498.5700000000006 668.127 2498.9800000000005C668.14 2499.2600000000007 668.0039999999999 2499.5500000000006 667.7239999999999 2499.8300000000004Z " fill="#27be6e" fill-opacity="1" transform="matrix(1,0,0,1,-654,-2490)"></path></svg>